<svg transform="scale(1)" version="1.1" id="oGCjRjcT1s" xmlns="http://www.w3.org/2000/svg" xmlns:xlink="http://www.w3.org/1999/xlink" x="0px" y="0px" viewBox="0 0 500 500" xml:space="preserve" class="pbimage_pbimage__wrapper__image__0LEis false"><title>Being Sick</title><style type="text/css"> .st0{fill:#FFFFFF;} .st1{fill:#000005;} .st2{opacity:0.26;} .st3{fill:#59BE4C;} .st4{opacity:0.21;}
 .st3{fill:#59BE4C;}
 .st1{fill:#000005;}
 .st0{fill:#FFFFFF;}</style><g id="device"><polygon class="st0" points="198,409.3 135.8,409.3 130.8,443.7 203.1,443.7 	" fill="#FFFFFF"></polygon><path class="st1" d="M199.9,408.3h-62.2c-0.8,0-1.7,0.2-2.5,0.5c-0.4,0.2-1.7,0.6-1.8,1.2l-4.4,30.1l-0.6,4.3
		c0,0.3,0.1,0.4,0.4,0.4h72.3c1,0,1.9-0.2,2.8-0.7c0.4-0.2,1.6-0.7,1.5-1.2l-4.4-30.1l-0.6-4.3c-0.1-0.7-4.9,0.5-4.7,1.7l4.4,30.1
		l0.6,4.3l4.3-1.9h-72.3l0.4,0.4l4.4-30.1l0.6-4.3l-4.2,1.7h62.2c1.2,0,2.3-0.3,3.3-0.9C199.7,409.3,201,408.3,199.9,408.3z" fill="#000005"></path><path class="st0" d="M54,232.1h225.3c5.3,0,9.6,4.3,9.6,9.6v158.6c0,5.3-4.3,9.6-9.6,9.6H54c-5.3,0-9.6-4.3-9.6-9.6V241.7
		C44.4,236.4,48.7,232.1,54,232.1z" fill="#FFFFFF"></path><path class="st1" d="M55.7,233.4H281c1.2-0.1,2.3,0.2,3.3,0.9c1.7,1.7,2.6,4,2.5,6.4c0,2.4,0,4.9,0,7.3v143.2c0,2.6,0,5.3,0,7.9
		c-0.1,5.1-4.1,9.2-9.2,9.4H58c-1.9,0-3.8,0-5.6,0c-1.6,0-2.7-0.2-3.7-1.4c-1.3-1.7-2-3.8-2-5.9c0-0.8,0-1.5,0-2.3V245.1
		c0-0.8,0-1.5,0-2.3C46.7,237.7,50.7,233.6,55.7,233.4c1.1,0,0.1-1-0.3-1.2c-0.9-0.8-2-1.3-3.1-1.5c-5.5-0.1-10,4.4-10.1,9.9
		c0,0,0,0.1,0,0.1v158.6c0.1,6.7,7.2,11.9,13.6,12c1.7,0,3.3,0,5,0h219.1c0.6,0,1.2,0,1.8,0c5.3-0.3,9.5-4.7,9.5-10
		c0-2.6,0-5.3,0-7.9v-144c0-2.2,0-4.5,0-6.8c-0.2-6.6-7.3-11.7-13.6-11.8H52.3c-1,0,0,1,0.3,1.2C53.5,232.8,54.6,233.3,55.7,233.4z" fill="#000005"></path><path class="st1" d="M54,230.1h225.3c5.3,0,9.6,4.3,9.6,9.6v0v132.9H44.4V239.7C44.4,234.4,48.7,230.1,54,230.1
		C54,230.1,54,230.1,54,230.1z" fill="#000005"></path><path class="st1" d="M53.2,232.1h225.2c4.2,0,7.7,3.1,8.2,7.3c0,0.2,0,0.5,0.1,0.7v132.8l3.2-2.3H55.1c-3.1,0-6.4-0.2-9.5,0h-0.4
		l1.5,1.7V241.6c0-2.7-0.1-5.5,2-7.6C49.9,232.8,51.5,232.1,53.2,232.1c1.3,0,2.5-0.7,3-1.8c0.4-0.8,0.1-1.7-0.7-2
		c-0.2-0.1-0.4-0.2-0.6-0.2c-7-0.1-12.8,5.5-12.9,12.5v113.9c0,6.1,0,12.1,0,18.2c0,0.1,0,0.2,0,0.3c-0.1,0.8,0.5,1.6,1.4,1.7
		c0,0,0.1,0,0.1,0h244.6c1.2,0,3.2-0.9,3.2-2.3V240.6c0.1-1.4,0-2.8-0.3-4.1c-1.3-5-5.7-8.4-10.8-8.5c-1.6,0-3.2,0-4.8,0H54.9
		c-1.3,0-2.4,0.7-3,1.8c-0.4,0.7-0.1,1.6,0.6,2C52.7,232,52.9,232,53.2,232.1z" fill="#000005"></path><circle class="st0" cx="166.9" cy="391.5" r="5" fill="#FFFFFF"></circle><path class="st1" d="M166.3,387.6C166.5,387.6,166.9,387.7,166.3,387.6h0.2c0.5,0-0.4-0.1,0,0l0.2,0.1c0.1,0,0.5,0.2,0.1,0l0.2,0.1
		c0.2,0.1,0.4,0.3,0.7,0.4s-0.1-0.1,0.1,0.1l0.2,0.2c0.2,0.2,0.3,0.3,0.4,0.5c0.2,0.3,0.4,0.7,0.6,1.1c0.3,0.9,0.4,1.8,0.2,2.7
		c-0.1,0.4-0.3,0.7-0.4,1.1c-0.1,0.2-0.2,0.4-0.4,0.5c0,0-0.2,0.3-0.1,0.2s-0.2,0.2-0.2,0.2c-0.2,0.1-0.3,0.3-0.5,0.4
		c-0.2,0.2,0,0,0,0l-0.3,0.2l-0.2,0.1l0.2-0.1l-0.3,0.1c-0.2,0.1-0.1-0.1,0.2,0l-0.3,0h0.3c-0.2,0-0.5,0,0.2,0c-0.1,0-0.2,0-0.3,0
		h0.3h-0.3c-0.4,0,0.1,0,0.1,0c-0.2,0-0.4-0.1-0.6-0.2c0.4,0.1,0,0-0.1,0c-0.1-0.1-0.2-0.1-0.3-0.2l-0.3-0.2c-0.1,0-0.3-0.2-0.1-0.1
		c-0.2-0.1-0.3-0.3-0.4-0.5c-0.3-0.4-0.6-0.8-0.8-1.2c-0.3-0.8-0.4-1.7-0.3-2.5c0.1-0.5,0.2-0.9,0.5-1.4c0.1-0.2,0.3-0.4,0.4-0.7
		l0.2-0.2c-0.2,0.2,0.1-0.1,0.1-0.1c0.2-0.2,0.4-0.3,0.6-0.5s-0.3,0.1,0.1,0l0.4-0.2c0.4-0.2-0.3,0.1-0.1,0l0.2-0.1l-0.2,0
		c0.1,0,0.2,0,0.3,0c-0.4,0-0.5,0.1-0.3,0S166.7,387.6,166.3,387.6c0.6,0,1.2-0.1,1.9-0.2c0.4-0.1,0.8-0.4,1.1-0.7
		c0.4-0.9-1.4-1.1-1.8-1.1c-2.9,0-6.4,1-7.6,4c-1,2.3-0.2,5,1.8,6.5c1.2,0.8,2.5,1.3,3.9,1.4c1.9,0.2,3.8-0.2,5.4-1
		c2.3-1.1,3.6-3.6,3.2-6.1c-0.6-3.2-3.7-4.9-6.8-4.9c-0.6,0-1.3,0.1-1.9,0.2c-0.4,0.1-0.8,0.4-1.1,0.7
		C164.1,387.4,165.9,387.6,166.3,387.6z" fill="#000005"></path><rect class="st0" x="54" y="240.1" width="224.9" height="122.8" fill="#FFFFFF"></rect><path class="st1" d="M52.5,241.4h215.7c2.9,0,5.9,0.2,8.8,0h0.4l-0.9-0.3v117.8c0,1.6-0.1,3.2,0,4.8v0.2l3.8-2.1H64.6
		c-2.9,0-5.9-0.2-8.8,0h-0.4l0.9,0.3V241.1c0.1-0.6,0.1-1.1,0-1.7c0-0.1,0-0.1,0-0.2c0-0.8-4.7,0.2-4.7,1.8v121
		c-0.1,0.6-0.1,1.1,0,1.7c0,0.1,0,0.1,0,0.2c0,0.3,0.8,0.3,0.9,0.3h215.7c2.9,0,5.9,0,8.8,0h0.4c1,0,3.8-0.8,3.8-2.1v-121
		c0.1-0.6,0.1-1.1,0-1.7c0-0.1,0-0.1,0-0.2c0-0.3-0.8-0.3-0.9-0.3H64.6c-2.9,0-5.8-0.1-8.8,0h-0.4c-1.2,0-2.4,0.5-3.3,1.3
		C51.4,240.8,51.6,241.4,52.5,241.4z" fill="#000005"></path></g><g id="virus"><g class="st2"><path class="st3" d="M294.2,113.2c0,0-12.9,5.9-11.5,21s16.1,26.3,32.9,11.8S314,104.4,294.2,113.2z"></path><path class="st3" d="M300.1,153.1c-2,0-4-0.4-5.9-1.1c-6.4-2.6-11.1-9.5-11.9-17.7c-1.5-15.2,11.5-21.3,11.6-21.4l0,0
			c10.7-4.7,20.5,0.9,25.1,8.2c4.6,7.3,5.2,17.7-3.4,25.1C310.6,150.8,305.2,153.1,300.1,153.1z M294.3,113.5
			c-0.2,0.1-12.7,6-11.3,20.7c0.8,7.9,5.3,14.7,11.5,17.1c6.3,2.5,13.8,0.6,20.9-5.6c8.3-7.2,7.6-17.4,3.2-24.3
			S304.6,109,294.3,113.5L294.3,113.5z"></path><path class="st3" d="M272,125.7c-1,0.6-1.4,1.8-1.2,2.9c0.3,2.2,2,3.8,3.8,1.9S274.2,124.5,272,125.7z"></path><path class="st3" d="M273,131.7c-0.2,0-0.4,0-0.6-0.1c-1.2-0.6-1.9-1.7-1.9-3c-0.3-1.3,0.3-2.6,1.4-3.3l0,0c1.1-0.5,2.4-0.1,3,0.9
			c1.1,1.3,1.1,3.1,0.1,4.4C274.5,131.3,273.8,131.6,273,131.7z M272.2,126c-0.8,0.6-1.2,1.6-1,2.6c0,1,0.6,1.9,1.5,2.4
			c0.7,0.1,1.4-0.2,1.8-0.7c0.8-1.1,0.8-2.5-0.1-3.6C274,126.4,273.2,125.4,272.2,126L272.2,126z"></path><rect class="st3" x="278.4" y="123.1" transform="matrix(2.670034e-02 -0.9996 0.9996 2.670034e-02 143.1383 403.7462)" width="1" height="10.5"></rect><path class="st3" d="M284.5,129.3l-11.1-0.3v-1.6l11.1,0.3V129.3z M274,128.3l9.8,0.3v-0.3L274,128L274,128.3z"></path><path class="st3" d="M280.6,112c-1.1-0.4-2.3-0.1-3.1,0.7c-1.6,1.4-2,3.8,0.6,4.2S282.8,113.2,280.6,112z"></path><path class="st3" d="M278.5,117.3h-0.4c-1,0-1.8-0.6-2.1-1.5c-0.2-1.3,0.3-2.5,1.3-3.3c0.9-0.9,2.3-1.2,3.5-0.8l0,0
			c1,0.6,1.5,1.9,0.9,3C281.2,116.1,280,117.1,278.5,117.3z M279.7,112.1c-0.7,0-1.4,0.3-1.9,0.8c-0.8,0.6-1.2,1.6-1.1,2.6
			c0.3,0.6,0.9,1,1.6,1c1.3,0,2.5-0.8,2.9-2.1c0.3-0.8,0.1-1.7-0.6-2.2C280.2,112.2,279.9,112.1,279.7,112.1z"></path><rect class="st3" x="283.1" y="113.9" transform="matrix(0.8366 -0.5478 0.5478 0.8366 -18.9417 174.8097)" width="1" height="10.5"></rect><path class="st3" d="M284.7,124.3l-6.1-9.3l1.4-0.9l6.1,9.3L284.7,124.3z M279.5,115.2l5.4,8.2l0.2-0.2l-5.4-8.2L279.5,115.2z"></path><path class="st3" d="M269.5,145.5c-0.7,1.4-0.5,3,0.5,4.2c1.7,2.3,4.8,3.1,5.6-0.3S271.3,142.8,269.5,145.5z"></path><path class="st3" d="M273.4,152.1c-1.5-0.1-2.8-0.9-3.6-2.2c-1.1-1.2-1.3-3.1-0.6-4.5l0,0c0.8-1.2,2.3-1.5,3.9-0.8
			c1.8,0.8,3.4,2.8,2.9,4.9c-0.4,1.8-1.4,2.4-2.2,2.6C273.7,152,273.5,152,273.4,152.1z M269.8,145.7c-0.6,1.3-0.4,2.8,0.5,3.8
			c1,1.3,2.3,2.1,3.4,1.9c0.8-0.2,1.4-0.9,1.7-2c0.4-1.8-1-3.5-2.5-4.2C272.4,144.9,270.7,144.3,269.8,145.7z"></path><rect class="st3" x="272.4" y="143.5" transform="matrix(0.884 -0.4675 0.4675 0.884 -34.9813 147.3018)" width="14" height="1.3"></rect><path class="st3" d="M273.3,148.4l-0.9-1.7l12.9-6.8l0.9,1.7L273.3,148.4z M273.3,147l0.3,0.5l11.8-6.2l-0.3-0.5L273.3,147z"></path><path class="st3" d="M327.5,112.7c0.6-1.4,0.2-3-0.9-4.1c-1.9-2.2-5.1-2.8-5.6,0.8S325.9,115.6,327.5,112.7z"></path><path class="st3" d="M325.4,114.2c-0.5,0-0.9-0.1-1.4-0.2c-1.9-0.6-3.6-2.5-3.3-4.7c0.3-1.9,1.2-2.5,2-2.7c1.3-0.4,3,0.3,4.2,1.8
			c1.2,1.2,1.6,2.9,0.9,4.5l0,0C327.4,113.8,326.4,114.3,325.4,114.2z M323.4,107.1c-0.2,0-0.4,0-0.5,0.1c-0.8,0.2-1.3,1-1.5,2.2
			c-0.3,1.8,1.2,3.4,2.8,4c0.5,0.2,2.2,0.6,3-0.8c0.5-1.3,0.2-2.8-0.8-3.7C325.6,107.9,324.5,107.3,323.4,107.1L323.4,107.1z"></path><rect class="st3" x="310.8" y="114.2" transform="matrix(0.845 -0.5348 0.5348 0.845 -12.1633 187.7725)" width="14" height="1.3"></rect><path class="st3" d="M312.1,119.6l-1-1.6l12.4-7.8l1,1.7L312.1,119.6z M312,118.1l0.3,0.5l11.2-7.1l-0.3-0.5L312,118.1z"></path><path class="st3" d="M304,160.7c0.8,0.8,2,1.1,3.1,0.7c2.1-0.6,3.5-2.6,1.2-4.1S302.5,158.7,304,160.7z"></path><path class="st3" d="M306,161.9c-0.9,0-1.7-0.3-2.3-1l0,0c-0.7-1-0.5-2.3,0.4-3.1c1.1-1.3,2.9-1.6,4.4-0.8
			c0.9,0.4,1.4,1.3,1.3,2.3c-0.4,1.2-1.4,2.1-2.6,2.4C306.8,161.8,306.4,161.9,306,161.9z M304.3,160.5c0.7,0.7,1.8,1,2.7,0.6
			c1-0.2,1.8-0.9,2.1-1.8c0-0.7-0.4-1.3-1-1.6c-1.2-0.6-2.6-0.3-3.5,0.7C304,158.8,303.8,159.8,304.3,160.5L304.3,160.5z"></path><rect class="st3" x="305" y="148.2" transform="matrix(0.9911 -0.1331 0.1331 0.9911 -17.7027 42.0369)" width="1" height="10.5"></rect><path class="st3" d="M305.5,159l-1.5-11l1.6-0.2l1.5,11L305.5,159z M304.7,148.5l1.3,9.7h0.3l-1.3-9.7L304.7,148.5z"></path><path class="st3" d="M303.7,100.5c-0.7-0.9-1.9-1.2-3-0.9c-2.1,0.5-3.6,2.4-1.5,4S305.1,102.6,303.7,100.5z"></path><path class="st3" d="M300.8,104.5c-0.6,0-1.2-0.2-1.7-0.6c-0.8-0.5-1.3-1.4-1.1-2.3c0.4-1.2,1.5-2.1,2.7-2.2c1.2-0.4,2.6,0,3.4,1
			l0,0c0.6,1,0.3,2.3-0.6,3C302.7,104,301.7,104.5,300.8,104.5z M301.6,99.9c-0.3,0-0.5,0-0.8,0.1c-1,0.1-1.8,0.8-2.2,1.7
			c0,0.7,0.3,1.3,0.9,1.7c1.1,0.7,2.6,0.5,3.5-0.5c0.3-0.3,1.1-1.2,0.5-2.2C303,100.2,302.3,99.9,301.6,99.9z"></path><rect class="st3" x="301.3" y="102.5" transform="matrix(0.9971 -7.671903e-02 7.671903e-02 0.9971 -7.3746 23.4678)" width="1" height="10.5"></rect><path class="st3" d="M301.4,113.3l-0.9-11.1l1.6-0.1l0.9,11.1L301.4,113.3z M301.2,102.8l0.8,9.8h0.3l-0.8-9.8H301.2z"></path><path class="st3" d="M330.7,141.1c1.1-0.2,2-1.1,2.3-2.2c0.6-2.1-0.3-4.3-2.7-3.3S328.2,141.3,330.7,141.1z"></path><path class="st3" d="M330.6,141.5c-1.1-0.1-2.1-0.9-2.2-2.1c-0.5-1.6,0.3-3.3,1.7-4.1c0.8-0.5,1.9-0.4,2.6,0.2
			c0.8,1,1,2.3,0.6,3.5c-0.3,1.3-1.3,2.2-2.6,2.4L330.6,141.5L330.6,141.5z M331.4,135.7c-0.3,0-0.7,0.1-1,0.2
			c-1.2,0.6-1.7,2-1.3,3.3c0.1,0.4,0.5,1.6,1.6,1.5c1-0.2,1.8-1,2-2c0.4-0.9,0.2-2-0.4-2.8C332.1,135.8,331.7,135.7,331.4,135.7z"></path><rect class="st3" x="325" y="130.6" transform="matrix(0.4296 -0.903 0.903 0.4296 62.9972 371.3964)" width="1" height="10.5"></rect><path class="st3" d="M330.1,139l-10.1-4.8l0.7-1.5l10.1,4.8L330.1,139z M321,133.9l8.9,4.2l0.1-0.3l-8.9-4.2L321,133.9z"></path><path class="st3" d="M319.9,153c1.1,0.1,2.3-0.4,2.8-1.4c1.2-1.8,1-4.2-1.6-3.9S317.5,152.4,319.9,153z"></path><path class="st3" d="M320.3,153.3c-0.1,0-0.3,0-0.5,0l0,0c-1.1-0.3-1.8-1.5-1.6-2.6c0.1-1.7,1.2-3,2.9-3.4c0.9-0.2,1.9,0.2,2.4,1
			c0.5,1.2,0.3,2.5-0.5,3.5C322.4,152.8,321.4,153.3,320.3,153.3z M320,152.6c1,0.1,2-0.4,2.5-1.3c0.6-0.8,0.8-1.8,0.5-2.8
			c-0.4-0.5-1.1-0.8-1.8-0.6c-1.3,0.3-2.2,1.4-2.3,2.7C318.9,151.1,318.9,152.4,320,152.6z"></path><rect class="st3" x="316" y="141.1" transform="matrix(0.6808 -0.7324 0.7324 0.6808 -6.1665 278.5017)" width="1" height="10.5"></rect><path class="st3" d="M320,150.7l-8.2-7.6l1.2-1.2l8.2,7.6L320,150.7z M312.8,143.1l7.2,6.7l0.2-0.2l-7.2-6.7L312.8,143.1z"></path><path class="st3" d="M327.3,124.8c0.3-0.9,0-1.8-0.8-2.3c-1.2-1.2-3.1-1.3-3.2,0.8S326.6,126.6,327.3,124.8z"></path><path class="st3" d="M326,126c-0.2,0-0.4,0-0.6-0.1c-1.3-0.2-2.3-1.4-2.3-2.7c-0.1-0.8,0.4-1.5,1.1-1.8c1-0.3,2,0,2.7,0.8
			c0.8,0.6,1.1,1.7,0.8,2.7l0,0C327.4,125.6,326.7,126,326,126z M324.8,122c-0.1,0-0.3,0-0.4,0.1c-0.4,0.2-0.7,0.7-0.6,1.2
			c0.1,1,0.8,1.8,1.8,2c0.3,0.1,1.2,0.2,1.5-0.6c0.2-0.7,0-1.5-0.7-2C326,122.3,325.4,122,324.8,122L324.8,122z"></path><rect class="st3" x="317.8" y="126.2" transform="matrix(0.7861 -0.6181 0.6181 0.7861 -9.4142 226.0304)" width="8.1" height="0.7"></rect><path class="st3" d="M318.8,129.9l-0.9-1.1l6.9-5.4l0.9,1.1L318.8,129.9z M318.9,128.9L318.9,128.9l5.9-4.6l0-0.1L318.9,128.9z"></path><path class="st3" d="M290.6,156.5c0.2,0.9,1,1.5,1.9,1.6c1.6,0.3,3.3-0.5,2.3-2.3S290.3,154.6,290.6,156.5z"></path><path class="st3" d="M293.2,158.4c-0.3,0-0.5,0-0.8-0.1c-1-0.1-1.9-0.9-2.1-1.9l0,0c-0.1-0.9,0.5-1.8,1.5-2c1.2-0.5,2.6,0,3.4,1.1
			c0.4,0.6,0.5,1.5,0,2.1C294.6,158.2,293.9,158.5,293.2,158.4z M290.9,156.4c0.2,0.7,0.8,1.2,1.6,1.3c0.7,0.2,1.5,0,2-0.5
			c0.2-0.4,0.2-1-0.1-1.4c-0.6-0.8-1.6-1.1-2.5-0.8C291.6,155.2,290.8,155.6,290.9,156.4L290.9,156.4z"></path><rect class="st3" x="290.2" y="151.6" transform="matrix(0.3422 -0.9396 0.9396 0.3422 50.7501 376.5007)" width="8.1" height="0.7"></rect><path class="st3" d="M293.5,156.4l-1.3-0.5l3-8.3l1.3,0.5L293.5,156.4z M293,155.5L293,155.5l2.6-7h-0.1L293,155.5z"></path><path class="st3" d="M292.5,116.5c-0.3,2.2-0.2,4.4,0.3,6.6c0.5,2.2,1.8,4.1,3.7,5.3c0.6,0.4,1.3,0.5,2,0.5c1.6-0.2,2.5-2,3.1-3.6
			s1.7-3.3,3.4-3.2c1.2,0.1,2.1,1.3,3,2.1c1.3,1.2,3,1.6,4.7,1.2c1.7-0.5,2.7-2.1,2.5-3.9"></path><path class="st3" d="M290.9,116.7c-0.3,3.3-0.2,6.7,1.4,9.6c1.4,2.5,4.5,4.7,7.5,3.4c1.2-0.6,2.1-1.5,2.7-2.7
			c0.6-1.1,0.9-2.5,1.8-3.4c0.3-0.3,0.3-0.3,0.8,0c0.5,0.4,1.1,0.9,1.5,1.4c1.1,1,2.5,1.6,4,1.8c3.3,0.3,6.8-2.1,6.3-5.7
			c-0.2-1.5-3.4-0.6-3.2,0.9c0.2,1.1-0.5,2.1-1.6,2.3c-0.1,0-0.3,0-0.4,0c-1.5-0.1-2.5-1.3-3.5-2.2c-2.5-2.2-5.6-1.2-7.3,1.5
			c-0.7,1.1-1,2.5-1.8,3.5c-0.4,0.5-0.4,0.7-1,0.4c-0.7-0.3-1.3-0.8-1.8-1.3c-2.4-2.7-2.4-6.4-2.1-9.8
			C294.4,114.6,291.1,115.1,290.9,116.7L290.9,116.7z"></path><path class="st3" d="M285.9,141.6c2.5-3.4,7.3-4.1,10.7-1.7c1,0.7,1.7,1.6,2.3,2.7c0.8,1.7,1.2,3.7,1.1,5.6"></path><path class="st3" d="M287.4,141.9c1.6-2.2,4.6-2.9,7-1.7c3.1,1.6,3.9,5,3.9,8.2c0,0.8,1.3,0.9,1.8,0.8c0.7-0.1,1.5-0.6,1.5-1.4
			c0.1-2.2-0.4-4.3-1.4-6.2c-1-1.7-2.6-3-4.5-3.7c-4.1-1.5-8.7-0.2-11.4,3.3c-0.5,0.6,0.2,1.3,0.8,1.4
			C286.1,142.8,286.9,142.5,287.4,141.9L287.4,141.9z"></path><path class="st3" d="M311.1,133.8c-1.3,1.1-2.1,2.6-2.4,4.3c-0.1,0.3-0.1,0.7,0,1c0.1,0.3,0.4,0.6,0.7,0.9c0.4,0.4,0.9,0.7,1.4,1
			c0.3,0.2,0.7,0.3,1,0.4c0.5-0.1,0.9-0.3,1.2-0.7c1.1-0.8,1.7-2,1.7-3.3c-0.2-1.1-0.8-2.1-1.7-2.9"></path><path class="st3" d="M309.5,133.9c-1,0.8-1.7,1.9-2.1,3.1c-0.3,0.6-0.4,1.3-0.3,2c0.1,0.7,0.7,1.1,1.2,1.5c0.5,0.5,1.2,0.8,1.8,1
			c0.7,0.1,1.5,0.1,2.2,0c0.6,0,1.1-0.1,1.7-0.4c0.6-0.3,1.1-0.8,1.5-1.3c0.4-0.5,0.8-1,1-1.6c0.5-1.6-0.6-2.8-1.6-3.9
			c-0.1-0.1-0.4-0.1-0.5-0.1c-0.4,0-0.8,0-1.2,0c-0.4,0-0.8,0.1-1.2,0.1c0,0-0.5,0.1-0.5,0.2c0.9,0.7,1.5,1.7,1.7,2.9
			c0,1.1-0.5,2.2-1.4,3c-0.2,0.2-0.4,0.4-0.6,0.5c-0.1,0.1-0.2,0.2-0.4,0.2c-0.4,0.2-0.7,0.1,1,0s1.5,0,1-0.1
			c-0.6-0.2-1.1-0.6-1.6-1c-0.5-0.3-0.9-0.8-1-1.4c0-0.6,0.1-1.1,0.3-1.7c0.4-1.2,1.1-2.3,2.1-3.2c0.1-0.1-0.1-0.1-0.2-0.1
			c-0.3,0-0.7,0-1,0c-0.4,0-0.9,0-1.3,0.1C310,133.8,309.6,133.8,309.5,133.9L309.5,133.9z"></path></g><g class="st2"><path class="st3" d="M404,65.3c-5.2,2.6-8.2,8.1-7.6,13.9c1,10,10.6,17.3,21.7,7.8S417.1,59.5,404,65.3z"></path><path class="st3" d="M408,91.7c-1.3,0-2.7-0.3-3.9-0.8c-4.3-1.7-7.4-6.2-7.9-11.8c-1-10.1,7.7-14.2,7.8-14.2l0,0
			c7.1-3.2,13.6,0.6,16.7,5.4s3.5,11.8-2.2,16.7C414.9,90.1,411.3,91.7,408,91.7z M404.2,65.6c-5,2.6-7.9,7.9-7.4,13.5
			c0.5,5.2,3.4,9.6,7.5,11.2s9,0.3,13.6-3.7c5.8-5,4.8-11.7,2.1-15.8C417.1,66.2,410.9,62.6,404.2,65.6z"></path><path class="st3" d="M389.4,73.5c-0.6,0.4-0.9,1.2-0.8,1.9c0.2,1.4,1.3,2.5,2.5,1.2S390.8,72.8,389.4,73.5z"></path><path class="st3" d="M390,77.6c-0.1,0-0.3,0-0.4-0.1c-0.8-0.4-1.3-1.1-1.4-2c-0.2-0.9,0.2-1.8,1-2.3l0,0c0.8-0.4,1.7-0.1,2.1,0.6
			c0.7,0.9,0.7,2.1,0,3C391,77.3,390.6,77.5,390,77.6z M389.5,73.8c-0.5,0.4-0.7,1-0.6,1.6c0,0.6,0.4,1.2,0.9,1.5
			c0.4,0,0.8-0.1,1-0.4c0.5-0.7,0.5-1.6-0.1-2.2C390.7,74.1,390.2,73.5,389.5,73.8z"></path><rect class="st3" x="393.6" y="71.8" transform="matrix(2.670034e-02 -0.9996 0.9996 2.670034e-02 308.1952 467.0873)" width="0.6" height="6.9"></rect><rect class="st3" x="393.3" y="71.5" transform="matrix(2.670034e-02 -0.9996 0.9996 2.670034e-02 308.224 467.1272)" width="1.3" height="7.6"></rect><path class="st3" d="M395.1,64.5c-0.7-0.3-1.5-0.1-2,0.5c-1.1,1-1.3,2.5,0.4,2.8S396.5,65.2,395.1,64.5z"></path><path class="st3" d="M393.7,68.1h-0.3c-0.7,0-1.3-0.4-1.5-1.1c-0.2-0.9,0.2-1.8,0.9-2.3c0.6-0.7,1.6-0.9,2.4-0.5l0,0
			c0.7,0.4,1,1.3,0.7,2.1C395.6,67.3,394.7,68,393.7,68.1z M394.5,64.7c-0.4,0-0.9,0.2-1.2,0.5c-0.5,0.4-0.8,1-0.7,1.6
			c0.1,0.4,0.6,0.6,0.9,0.6c0.8,0,1.6-0.5,1.8-1.3c0.1-0.2,0.3-1-0.4-1.3C394.8,64.7,394.6,64.7,394.5,64.7L394.5,64.7z"></path><rect class="st3" x="395.9" y="65.8" transform="matrix(0.8364 -0.5481 0.5481 0.8364 26.8597 228.5205)" width="0.6" height="6.9"></rect><rect class="st3" x="395.6" y="65.5" transform="matrix(0.8364 -0.5481 0.5481 0.8364 26.8693 228.5157)" width="1.3" height="7.6"></rect><path class="st3" d="M387.8,86.6c-0.5,0.9-0.3,2,0.4,2.8c1.1,1.5,3.2,2.1,3.7-0.2S389,84.8,387.8,86.6z"></path><path class="st3" d="M390.3,91c-1-0.1-1.9-0.6-2.5-1.5c-0.8-0.9-0.9-2.1-0.4-3.1l0,0c0.6-0.9,1.8-1.1,2.7-0.6
			c1.4,0.5,2.2,1.9,2,3.4c-0.3,1.3-1.1,1.7-1.5,1.8C390.6,91,390.4,91,390.3,91z M388.1,86.8c-0.4,0.8-0.2,1.7,0.4,2.4
			c0.4,0.7,1.3,1.2,2.1,1.2c0.6-0.1,0.9-0.8,1-1.3c0.1-1.1-0.5-2.2-1.6-2.6C389.6,86.3,388.6,85.9,388.1,86.8L388.1,86.8z"></path><rect class="st3" x="389.7" y="85.3" transform="matrix(0.884 -0.4675 0.4675 0.884 5.6789 194.2384)" width="9.2" height="0.8"></rect><path class="st3" d="M390.2,88.6l-0.7-1.3l8.7-4.6L399,84L390.2,88.6z M390.4,87.6l0.1,0.2l7.5-4l-0.1-0.2L390.4,87.6z"></path><path class="st3" d="M426,64.9c0.4-0.9,0.2-2-0.6-2.7c-1.2-1.5-3.3-1.8-3.7,0.5C421.4,65,425,66.8,426,64.9z"></path><path class="st3" d="M424.6,66.1c-0.3,0-0.6-0.1-0.9-0.2c-1.4-0.4-2.4-1.8-2.2-3.2c0-0.9,0.6-1.6,1.4-1.9c1.1-0.2,2.2,0.3,2.9,1.2
			c0.8,0.8,1.1,2,0.6,3.1l0,0C426,65.7,425.3,66.1,424.6,66.1z M423.3,61.4c-0.1,0-0.2,0-0.3,0c-0.5,0.2-0.9,0.7-0.9,1.3
			c-0.1,1.1,0.7,2.2,1.8,2.5c0.3,0.1,1.4,0.4,1.9-0.5c0.3-0.8,0.1-1.7-0.5-2.3C424.7,61.8,424,61.5,423.3,61.4z"></path><rect class="st3" x="415" y="66" transform="matrix(0.845 -0.5348 0.5348 0.845 29.5452 234.7029)" width="9.2" height="0.8"></rect><path class="st3" d="M415.9,69.6l-0.9-1.3l8.3-5.3l0.8,1.3L415.9,69.6z M416,68.6l0.1,0.1l7.2-4.6l-0.1-0.2L416,68.6z"></path><path class="st3" d="M410.5,96.6c0.5,0.5,1.3,0.7,2,0.4c1.4-0.4,2.3-1.7,0.8-2.7S409.5,95.3,410.5,96.6z"></path><path class="st3" d="M411.8,97.5c-0.6,0-1.2-0.2-1.6-0.7l0,0c-0.5-0.7-0.4-1.6,0.3-2.2c0.8-0.9,2-1.1,3-0.5
			c0.6,0.3,0.9,0.9,0.9,1.6c-0.2,0.9-0.9,1.5-1.8,1.7C412.3,97.4,412.1,97.5,411.8,97.5z M410.8,96.4c0.4,0.4,1.1,0.6,1.7,0.3
			c0.6-0.1,1.1-0.5,1.3-1.1c0.1-0.4-0.3-0.7-0.6-1c-0.7-0.4-1.6-0.2-2.1,0.4C410.8,95.2,410.3,95.8,410.8,96.4z"></path><rect class="st3" x="411.2" y="88.3" transform="matrix(0.9911 -0.1331 0.1331 0.9911 -8.5556 55.5977)" width="0.6" height="6.9"></rect><rect class="st3" x="410.9" y="88" transform="matrix(0.9911 -0.1331 0.1331 0.9911 -8.5523 55.598)" width="1.3" height="7.6"></rect><path class="st3" d="M410.3,56.9c-0.5-0.6-1.3-0.8-2-0.6c-1.4,0.3-2.4,1.6-1,2.6S411.2,58.3,410.3,56.9z"></path><path class="st3" d="M408.4,59.7c-0.4,0-0.9-0.1-1.2-0.4c-0.6-0.3-0.9-1-0.8-1.7c0.3-0.9,1-1.5,1.9-1.6c0.9-0.3,1.8,0,2.4,0.7l0,0
			c0.4,0.7,0.3,1.6-0.4,2.2C409.7,59.3,409,59.6,408.4,59.7z M408.9,56.7c-0.2,0-0.3,0-0.5,0.1c-0.6,0.1-1.2,0.5-1.4,1
			c0,0.4,0.2,0.8,0.5,1c0.7,0.4,1.6,0.3,2.2-0.3c0.2-0.2,0.7-0.7,0.3-1.3C409.8,56.8,409.3,56.6,408.9,56.7L408.9,56.7z"></path><rect class="st3" x="410.1" y="57" transform="matrix(0.9968 -7.974522e-02 7.974522e-02 0.9968 -3.5173 32.9232)" width="0.6" height="6.9"></rect><rect class="st3" x="408.4" y="57.9" transform="matrix(0.9971 -7.671903e-02 7.671903e-02 0.9971 -3.5267 31.5619)" width="1.3" height="7.6"></rect><path class="st3" d="M428.1,83.7c0.7-0.1,1.3-0.7,1.5-1.4c0.4-1.4-0.2-2.8-1.8-2.2S426.5,83.8,428.1,83.7z"></path><path class="st3" d="M428,84c-0.8,0-1.5-0.6-1.6-1.4c-0.3-1.1,0.2-2.3,1.2-2.8c0.6-0.3,1.3-0.3,1.8,0.1c0.6,0.7,0.7,1.6,0.4,2.4
			c-0.2,0.9-0.9,1.5-1.7,1.7H428z M428.5,80.2c-0.2,0-0.4,0.1-0.6,0.2c-0.7,0.4-1,1.2-0.8,2c0.1,0.2,0.3,1,1,0.9
			c0.6-0.1,1.1-0.6,1.2-1.2c0.2-0.6,0.2-1.2-0.2-1.7C428.9,80.3,428.7,80.2,428.5,80.2L428.5,80.2z"></path><rect class="st3" x="424.4" y="76.7" transform="matrix(0.4296 -0.903 0.903 0.4296 169.8253 429.2415)" width="0.6" height="6.9"></rect><rect class="st3" x="424" y="76.4" transform="matrix(0.4296 -0.903 0.903 0.4296 169.815 429.2384)" width="1.3" height="7.6"></rect><path class="st3" d="M421,91.5c0.8,0.1,1.5-0.3,1.9-0.9c0.8-1.2,0.7-2.8-1.1-2.6S419.4,91.1,421,91.5z"></path><path class="st3" d="M421.2,91.8c-0.1,0-0.2,0-0.3,0l0,0c-0.8-0.2-1.3-1-1.2-1.8c0-1.1,0.9-2.1,2-2.3c0.7-0.2,1.3,0.1,1.7,0.7
			c0.4,0.8,0.2,1.7-0.3,2.4C422.7,91.4,422,91.8,421.2,91.8z M421.1,91.2c0.6,0.1,1.2-0.3,1.5-0.8c0.4-0.5,0.5-1.1,0.3-1.7
			c-0.3-0.3-0.7-0.4-1.1-0.3c-0.8,0.2-1.4,0.9-1.4,1.7C420.4,90.2,420.4,91,421.1,91.2z"></path><rect class="st3" x="418.4" y="83.7" transform="matrix(0.6808 -0.7324 0.7324 0.6808 69.841 334.4857)" width="0.6" height="6.9"></rect><rect class="st3" x="418.1" y="83.4" transform="matrix(0.681 -0.7323 0.7323 0.681 69.7721 334.4734)" width="1.3" height="7.6"></rect><path class="st3" d="M425.9,72.9c0.2-0.6,0-1.2-0.5-1.5c-0.8-0.8-2-0.9-2.1,0.5S425.4,74.1,425.9,72.9z"></path><path class="st3" d="M425,73.8c-0.1,0-0.3,0-0.4,0c-0.9-0.2-1.6-1-1.6-1.9c0-0.5,0.3-1.1,0.8-1.3c0.7-0.2,1.4,0,1.9,0.6
			c0.6,0.5,0.8,1.2,0.6,1.9l0,0C426,73.6,425.5,73.8,425,73.8z M424.2,71.2c-0.1,0-0.1,0-0.2,0c-0.2,0.2-0.4,0.4-0.4,0.7
			c0,0.6,0.5,1.1,1.1,1.2c0.2,0,0.7,0.1,0.9-0.3c0.1-0.4-0.1-0.9-0.4-1.2C424.9,71.3,424.6,71.2,424.2,71.2L424.2,71.2z"></path><rect class="st3" x="419.6" y="73.9" transform="matrix(0.7861 -0.6181 0.6181 0.7861 44.5216 276.8735)" width="5.4" height="0.5"></rect><rect class="st3" x="419.3" y="73.6" transform="matrix(0.7856 -0.6187 0.6187 0.7856 44.6442 277.149)" width="6" height="1.2"></rect><path class="st3" d="M401.7,93.8c0.2,0.5,0.7,0.9,1.2,1c1.1,0.2,2.2-0.3,1.5-1.6S401.5,92.6,401.7,93.8z"></path><path class="st3" d="M403.4,95.2c-0.2,0-0.4,0-0.5-0.1c-0.7-0.1-1.3-0.6-1.5-1.3l0,0c-0.1-0.7,0.3-1.3,1-1.5
			c0.9-0.3,1.8,0,2.4,0.8c0.3,0.5,0.3,1.1,0,1.5C404.4,95,403.9,95.2,403.4,95.2z M402,93.7c0.1,0.4,0.5,0.7,1,0.8
			c0.4,0.1,0.9,0,1.2-0.3c0.1-0.3,0.1-0.6-0.1-0.8c-0.3-0.5-1-0.7-1.5-0.4C402.4,93.1,401.9,93.3,402,93.7z"></path><rect class="st3" x="401.4" y="90.6" transform="matrix(0.3422 -0.9396 0.9396 0.3422 180.4478 439.4585)" width="5.4" height="0.5"></rect><rect class="st3" x="401.1" y="90.3" transform="matrix(0.3422 -0.9396 0.9396 0.3422 180.4558 439.5039)" width="6" height="1.2"></rect><path class="st3" d="M402.9,67.4c-0.2,1.4-0.1,2.9,0.2,4.3c0.3,1.4,1.2,2.7,2.4,3.5c0.4,0.2,0.9,0.4,1.3,0.3
			c1.1-0.1,1.6-1.3,2-2.4s1.1-2.2,2.2-2.1c0.8,0.1,1.4,0.8,2,1.4c0.8,0.8,2,1.1,3.1,0.8c1.1-0.3,1.8-1.4,1.7-2.6"></path><path class="st3" d="M401.3,67.5c-0.2,2.2-0.2,4.7,1,6.7s3.4,3.6,5.6,2.6c0.9-0.5,1.6-1.3,2-2.2c0.2-0.4,0.4-0.8,0.5-1.2
			c0.1-0.2,0.4-0.7,0.5-0.8c0-0.2,0,0.1-0.1,0s0.1,0.2,0,0.1c0.1,0.2,0.7,0.6,0.9,0.8c0.8,0.7,1.8,1.2,2.8,1.4
			c2.6,0.3,5.3-1.7,4.9-4.5c-0.3-1.9-3.5-0.9-3.2,0.9c0.1,0.6-0.3,0.8-0.8,0.8c-0.8,0-1.4-0.8-1.9-1.2c-1.9-1.7-4.4-1.1-5.6,1
			c-0.3,0.8-0.7,1.6-1.2,2.3c0,0-0.3,0.2-0.1,0.1s0.4,0.1,0-0.1c-0.4-0.2-0.7-0.4-1-0.7c-1.5-1.6-1.4-4-1.3-6S401.4,65.7,401.3,67.5
			L401.3,67.5z"></path><path class="st3" d="M398.6,84c1.6-2.2,4.7-2.8,7-1.2c0.7,0.5,1.2,1.1,1.6,1.8c0.5,1.2,0.8,2.4,0.7,3.7"></path><path class="st3" d="M399.8,85.1l0.3-0.3c0,0,0.3-0.3,0.1-0.2s0.2-0.2,0.2-0.2c0.1-0.1,0.2-0.1,0.3-0.2c0.1-0.1,0.2-0.2,0.4-0.2
			s-0.1,0,0.1,0s0.5-0.2,0.7-0.3l0.4-0.1c-0.2,0,0,0,0.1,0c0.3,0,0.5,0,0.8,0c0.3,0-0.1,0,0.1,0s0.3,0,0.4,0.1l0.3,0.1
			c0.4,0.1-0.2-0.1,0.1,0l0.6,0.3c0.3,0.2-0.2-0.1,0.1,0.1l0.3,0.3l0.2,0.2c0.1,0.1-0.2-0.2,0,0c0.2,0.2,0.3,0.4,0.5,0.7
			c-0.1-0.2,0-0.1,0,0.1s0.1,0.2,0.1,0.4s0.1,0.5,0.1,0.2c0,0.1,0.1,0.3,0.1,0.4c0.1,0.3,0.1,0.6,0.1,0.9c0,0.2,0,0.3,0,0.5
			c0,0.1,0,0.5,0,0.2c-0.1,0.9,0.5,1.7,1.4,1.9c0.8,0.2,1.5-0.3,1.7-1.1c0-0.1,0-0.1,0-0.2c0.1-1.7-0.2-3.4-1-4.9
			c-0.7-1.3-1.8-2.3-3.1-2.9c-2.8-1.2-6-0.4-7.9,2c-0.5,0.7-0.4,1.7,0.3,2.3C398.2,85.8,399.2,85.8,399.8,85.1
			C399.8,85.1,399.8,85.1,399.8,85.1L399.8,85.1z"></path><path class="st3" d="M415.2,78.9c-0.8,0.7-1.4,1.7-1.6,2.8c0,0.2,0,0.4,0,0.6c0.1,0.2,0.2,0.4,0.4,0.6c0.3,0.3,0.6,0.5,0.9,0.7
			c0.2,0.1,0.4,0.2,0.7,0.2c0.3,0,0.6-0.2,0.8-0.4c0.7-0.5,1.1-1.3,1.1-2.2c-0.1-0.7-0.5-1.4-1.1-1.9"></path><path class="st3" d="M413.9,77.9c-0.7,0.6-1.3,1.4-1.6,2.3c-0.2,0.5-0.3,1-0.3,1.5c0.2,0.8,0.6,1.5,1.4,2c0.4,0.4,1,0.7,1.5,1
			c0.9,0.4,1.9,0.3,2.7-0.2c0.8-0.6,1.4-1.5,1.7-2.5c0.3-1.3-0.7-2.5-1.5-3.3c-0.3-0.3-0.7-0.5-1.1-0.6c-0.4-0.1-0.8-0.1-1.1,0.1
			c-0.7,0.4-0.6,1.1-0.1,1.7l0.3,0.4l0.1,0.2c-0.3-0.3-0.1-0.1,0,0c0,0.1,0.1,0.1,0.1,0.2c0,0,0.2,0.3,0,0.1s0,0,0,0.1
			c0,0.1,0.1,0.2,0.1,0.3v-0.3c0,0.2,0,0.4,0,0.6l0.1-0.3c-0.1,0.4-0.2,0.7-0.5,1l0.2-0.2c-0.3,0.4-0.6,0.7-1,1l0.3-0.2
			c-0.1,0.1-0.4,0.1,0,0.1c-0.1,0-0.1,0,0.1,0c0.2,0,0.4,0,0.5,0.1l-0.1-0.1c0.3,0.2,0.3,0.2,0.2,0.1l-0.3-0.2l-0.3-0.2
			c-0.1-0.1-0.1-0.1,0.1,0.1l-0.1-0.1c-0.1-0.1-0.3-0.4,0,0c-0.1-0.1-0.1-0.1,0,0.1c0-0.1,0-0.1,0-0.2v0.3c0-0.3,0-0.6,0.1-0.9
			l-0.1,0.3c0.1-0.6,0.4-1.1,0.8-1.6l-0.2,0.2c0.2-0.3,0.5-0.6,0.8-0.8c0.2-0.2,0.3-0.6,0.2-0.8c-0.1-0.4-0.4-0.7-0.7-0.9
			C415.5,77.6,414.6,77.6,413.9,77.9L413.9,77.9z"></path></g><g class="st2"><path class="st3" d="M434.1,130.1c-4.8,2.4-7.7,7.6-7.1,13c0.9,9.4,10,16.3,20.4,7.3S446.4,124.7,434.1,130.1z"></path><path class="st3" d="M437.8,155c-1.3,0-2.5-0.2-3.7-0.7c-4.1-1.6-6.9-5.9-7.5-11.1c-0.6-5.6,2.4-10.9,7.3-13.4l0,0
			c6.7-3,12.9,0.6,15.7,5.1s3.3,11.1-2.1,15.8C444.3,153.5,441,155,437.8,155z M434.2,130.4c-4.7,2.4-7.4,7.5-6.9,12.7
			c0.5,4.9,3.2,9,7,10.5s8.4,0.3,12.8-3.5c5.5-4.7,4.5-11,2-14.9C446.4,131,440.6,127.6,434.2,130.4L434.2,130.4z"></path><path class="st3" d="M420.3,137.8c-0.6,0.4-0.9,1.1-0.7,1.8c0.2,1.3,1.2,2.4,2.4,1.2S421.7,137.1,420.3,137.8z"></path><path class="st3" d="M420.9,141.7c-0.1,0-0.3,0-0.4-0.1c-0.8-0.4-1.3-1.1-1.3-1.9c-0.2-0.8,0.2-1.7,0.9-2.1l0,0
			c0.7-0.3,1.6-0.1,2,0.6c0.7,0.8,0.7,2.1,0,2.9C421.9,141.4,421.4,141.6,420.9,141.7z M420.5,138.1c-0.5,0.3-0.7,0.9-0.5,1.5
			c0,0.6,0.3,1.1,0.8,1.4c0.4,0.1,0.7-0.1,1-0.4c0.4-0.6,0.4-1.4-0.1-2C421.5,138.4,421,137.8,420.5,138.1z"></path><rect class="st3" x="424.3" y="136.2" transform="matrix(2.670034e-02 -0.9996 0.9996 2.670034e-02 273.8494 560.2231)" width="0.6" height="6.5"></rect><rect class="st3" x="424" y="135.9" transform="matrix(2.670034e-02 -0.9996 0.9996 2.670034e-02 273.8493 560.2327)" width="1.3" height="7.2"></rect><path class="st3" d="M425.7,129.3c-0.7-0.3-1.4-0.1-1.9,0.4c-1,0.9-1.2,2.4,0.4,2.6S427,130.1,425.7,129.3z"></path><path class="st3" d="M424.4,132.7h-0.3c-0.6,0-1.2-0.4-1.4-1c-0.2-0.8,0.2-1.7,0.9-2.2c0.6-0.6,1.5-0.8,2.3-0.5l0,0
			c0.7,0.4,1,1.3,0.6,2C426.2,132,425.3,132.7,424.4,132.7z M425.1,129.6c-0.4,0-0.8,0.2-1.1,0.5c-0.5,0.3-0.7,0.9-0.7,1.5
			c0.2,0.3,0.5,0.5,0.9,0.6c0.8,0,1.5-0.5,1.6-1.2c0.1-0.2,0.2-0.9-0.3-1.2C425.4,129.6,425.2,129.5,425.1,129.6z"></path><rect class="st3" x="426.5" y="130.6" transform="matrix(0.8364 -0.5481 0.5481 0.8364 -3.5366 255.8197)" width="0.6" height="6.5"></rect><rect class="st3" x="426.1" y="130.2" transform="matrix(0.8364 -0.5481 0.5481 0.8364 -3.5313 255.8112)" width="1.3" height="7.2"></rect><path class="st3" d="M418.8,150.1c-0.4,0.9-0.3,1.9,0.3,2.6c1.1,1.4,3,2,3.5-0.2S419.9,148.4,418.8,150.1z"></path><path class="st3" d="M421.2,154.3c-0.9-0.1-1.8-0.6-2.3-1.4c-0.7-0.8-0.9-2-0.4-3l0,0c0.6-0.8,1.7-1.1,2.6-0.6
			c1.3,0.5,2.1,1.8,1.9,3.3C423,153.6,422.2,154.3,421.2,154.3L421.2,154.3z M419.1,150.3c-0.4,0.7-0.2,1.6,0.3,2.2
			c0.4,0.7,1.2,1.1,2,1.1c0.6-0.1,0.8-0.7,0.9-1.2c0.1-1.1-0.5-2.1-1.5-2.4C420.2,149.7,419.5,149.8,419.1,150.3L419.1,150.3z"></path><rect class="st3" x="420.6" y="148.9" transform="matrix(0.884 -0.4675 0.4675 0.884 -20.5034 215.9351)" width="8.7" height="0.8"></rect><path class="st3" d="M421.1,152.1l-0.7-1.3l8.2-4.4l0.7,1.3L421.1,152.1z M421.3,151.1l0.1,0.1l7.1-3.7l0-0.1L421.3,151.1z"></path><path class="st3" d="M454.8,129.8c0.4-0.9,0.1-1.9-0.5-2.6c-1.2-1.4-3.1-1.7-3.5,0.5S453.8,131.5,454.8,129.8z"></path><path class="st3" d="M453.4,130.8c-0.3,0-0.6-0.1-0.9-0.2c-1.3-0.4-2.2-1.7-2.1-3.1c0-0.8,0.6-1.5,1.3-1.8
			c1.1-0.1,2.1,0.3,2.8,1.2c0.8,0.8,1,1.9,0.6,2.9l0,0C454.7,130.5,454.1,130.9,453.4,130.8z M452.2,126.4c-0.1,0-0.2,0-0.3,0
			c-0.5,0.2-0.8,0.7-0.8,1.2c-0.1,1.1,0.6,2,1.7,2.3c0.3,0.1,1.3,0.4,1.7-0.5c0.3-0.8,0.1-1.6-0.5-2.2
			C453.5,126.8,452.9,126.5,452.2,126.4z"></path><rect class="st3" x="444.4" y="130.7" transform="matrix(0.845 -0.5348 0.5348 0.845 -0.5588 260.3288)" width="8.7" height="0.8"></rect><path class="st3" d="M445.2,134.2l-0.8-1.2l7.9-5l0.8,1.2L445.2,134.2z M445.4,133.2l0.1,0.1l6.8-4.3l-0.1-0.1L445.4,133.2z"></path><path class="st3" d="M440.2,159.6c0.5,0.5,1.2,0.7,1.9,0.4c1.3-0.4,2.2-1.6,0.8-2.5S439.3,158.3,440.2,159.6z"></path><path class="st3" d="M441.4,160.4c-0.6,0-1.1-0.2-1.5-0.7l0,0c-0.4-0.7-0.3-1.5,0.3-2.1c0.7-0.8,1.9-1,2.9-0.5
			c0.6,0.3,0.9,0.9,0.8,1.5c-0.2,0.8-0.9,1.4-1.7,1.6C441.9,160.4,441.7,160.4,441.4,160.4z M440.4,159.4c0.4,0.4,1,0.5,1.5,0.3
			c0.6-0.1,1-0.5,1.2-1c0.1-0.4-0.3-0.7-0.5-0.9c-0.7-0.3-1.5-0.2-2,0.4C440.5,158.3,440.1,158.8,440.4,159.4L440.4,159.4z"></path><rect class="st3" x="440.8" y="151.8" transform="matrix(0.9911 -0.1331 0.1331 0.9911 -16.711 60.1045)" width="0.6" height="6.5"></rect><rect class="st3" x="440.5" y="151.4" transform="matrix(0.9911 -0.1331 0.1331 0.9911 -16.7092 60.1036)" width="1.3" height="7.2"></rect><path class="st3" d="M440,122.2c-0.5-0.5-1.2-0.8-1.9-0.5c-1.3,0.3-2.2,1.5-0.9,2.5S440.9,123.5,440,122.2z"></path><path class="st3" d="M438.2,124.8c-0.4,0-0.8-0.1-1.1-0.4c-0.6-0.3-0.9-0.9-0.8-1.6c0.3-0.8,1-1.4,1.8-1.5c0.8-0.3,1.7,0,2.2,0.7
			l0,0c0.4,0.7,0.2,1.5-0.4,2C439.4,124.5,438.8,124.8,438.2,124.8z M438.7,122c-0.2,0-0.3,0-0.5,0.1c-0.6,0.1-1.1,0.5-1.3,1
			c0,0.4,0.2,0.7,0.5,0.9c0.7,0.4,1.5,0.3,2-0.3c0.2-0.1,0.6-0.7,0.3-1.2C439.5,122.1,439.1,122,438.7,122L438.7,122z"></path><rect class="st3" x="438.5" y="123.4" transform="matrix(0.9971 -7.671903e-02 7.671903e-02 0.9971 -8.4242 34.0377)" width="0.6" height="6.5"></rect><rect class="st3" x="438.2" y="123.1" transform="matrix(0.9971 -7.671903e-02 7.671903e-02 0.9971 -8.4246 34.0373)" width="1.3" height="7.2"></rect><path class="st3" d="M456.8,147.4c0.7-0.1,1.3-0.7,1.4-1.4c0.4-1.3-0.2-2.7-1.7-2S455.2,147.5,456.8,147.4z"></path><path class="st3" d="M456.7,147.7c-0.8,0-1.4-0.6-1.5-1.4c-0.3-1,0.2-2.2,1.1-2.7c0.6-0.3,1.3-0.3,1.8,0.1
			c0.6,0.6,0.7,1.5,0.4,2.3C458.3,147,457.6,147.6,456.7,147.7L456.7,147.7L456.7,147.7z M457.2,144.2c-0.2,0-0.4,0.1-0.6,0.1
			c-0.7,0.4-1,1.2-0.8,1.9c0,0.2,0.3,0.9,0.9,0.9c0.6-0.1,1-0.6,1.1-1.1c0.2-0.5,0.1-1.1-0.2-1.6
			C457.5,144.2,457.4,144.2,457.2,144.2L457.2,144.2z"></path><rect class="st3" x="453.2" y="140.9" transform="matrix(0.4296 -0.903 0.903 0.4296 128.545 491.771)" width="0.6" height="6.5"></rect><rect class="st3" x="452.9" y="140.5" transform="matrix(0.4296 -0.903 0.903 0.4296 128.5457 491.7369)" width="1.3" height="7.2"></rect><path class="st3" d="M450.1,154.8c0.7,0.1,1.4-0.3,1.8-0.9c0.8-1.1,0.6-2.6-1-2.4S448.6,154.4,450.1,154.8z"></path><path class="st3" d="M450.3,155.1c-0.1,0-0.2,0-0.3,0l0,0c-0.8-0.2-1.2-1-1.1-1.8c0-1.1,0.8-2,1.9-2.2c0.6-0.1,1.3,0.1,1.6,0.6
			c0.3,0.8,0.2,1.7-0.3,2.3C451.7,154.7,451,155.1,450.3,155.1z M450.1,154.4c0.6,0.1,1.1-0.2,1.4-0.7c0.4-0.4,0.5-1,0.3-1.6
			c-0.2-0.3-0.6-0.4-1-0.3c-0.7,0.2-1.3,0.8-1.3,1.6C449.5,153.6,449.5,154.3,450.1,154.4L450.1,154.4z"></path><rect class="st3" x="447.6" y="147.4" transform="matrix(0.6808 -0.7324 0.7324 0.6808 32.6375 376.1484)" width="0.6" height="6.5"></rect><rect class="st3" x="447.3" y="147.1" transform="matrix(0.681 -0.7323 0.7323 0.681 32.5742 376.1117)" width="1.3" height="7.2"></rect><path class="st3" d="M454.7,137.3c0.2-0.5,0-1.1-0.5-1.4c-0.8-0.7-1.9-0.8-2,0.5S454.2,138.4,454.7,137.3z"></path><path class="st3" d="M453.8,138.1c-0.1,0-0.3,0-0.4,0c-0.9-0.2-1.5-0.9-1.5-1.8c0-0.5,0.3-1,0.7-1.2c0.7-0.2,1.4,0,1.8,0.5
			c0.5,0.4,0.8,1.2,0.5,1.8l0,0C454.8,137.9,454.3,138.2,453.8,138.1z M453.1,135.7c-0.1,0-0.1,0-0.2,0c-0.2,0.1-0.3,0.4-0.3,0.6
			c0,0.6,0.5,1,1,1.1c0.2,0,0.6,0.1,0.8-0.3c0.1-0.4,0-0.8-0.4-1.1C453.7,135.8,453.4,135.7,453.1,135.7L453.1,135.7z"></path><rect class="st3" x="448.7" y="138.2" transform="matrix(0.7861 -0.6181 0.6181 0.7861 10.9917 308.5499)" width="5" height="0.5"></rect><rect class="st3" x="448.4" y="137.8" transform="matrix(0.7855 -0.6188 0.6188 0.7855 11.1462 308.9212)" width="5.7" height="1.1"></rect><path class="st3" d="M431.9,156.9c0.1,0.5,0.6,0.9,1.1,1c1,0.2,2.1-0.3,1.4-1.4S431.7,155.8,431.9,156.9z"></path><path class="st3" d="M433.5,158.3c-0.2,0-0.3,0-0.5-0.1c-0.7-0.1-1.3-0.6-1.4-1.2l0,0c-0.1-0.7,0.4-1.3,1-1.4
			c0.8-0.3,1.8,0,2.2,0.7c0.3,0.4,0.3,1,0,1.4C434.5,158.1,434,158.3,433.5,158.3z M432.2,156.9c0.1,0.4,0.5,0.7,0.9,0.7
			c0.4,0.1,0.8,0,1.1-0.2c0.1-0.2,0.1-0.5-0.1-0.7c-0.3-0.4-0.9-0.6-1.4-0.4C432.5,156.3,432.1,156.4,432.2,156.9z"></path><rect class="st3" x="431.6" y="153.9" transform="matrix(0.3422 -0.9396 0.9396 0.3422 140.7403 509.3424)" width="5" height="0.5"></rect><rect class="st3" x="431.3" y="153.6" transform="matrix(0.3415 -0.9399 0.9399 0.3415 140.9925 509.5708)" width="5.7" height="1.1"></rect><path class="st3" d="M433,132.1c-0.2,1.4-0.1,2.7,0.2,4.1c0.3,1.4,1.1,2.5,2.3,3.3c0.4,0.2,0.8,0.3,1.2,0.3c1-0.1,1.5-1.3,1.9-2.2
			s1.1-2.1,2.1-2c0.8,0.1,1.3,0.8,1.9,1.3c0.8,0.7,1.9,1,2.9,0.7c1-0.3,1.7-1.3,1.6-2.4"></path><path class="st3" d="M431.4,132c-0.3,2.2,0,4.4,1,6.3c1,1.8,3.4,3.5,5.5,2.6c1.7-0.7,2.1-2.6,3-3.9c0.1-0.2,0.1,0,0-0.1
			s-0.1,0-0.1,0s-0.3-0.2-0.2,0c0.2,0.3,0.5,0.5,0.8,0.7c0.8,0.8,1.9,1.3,3,1.4c2.1,0.4,4.1-1,4.5-3c0.1-0.4,0.1-0.7,0-1.1
			c-0.1-0.9-1.3-1.2-2-1.1c-0.8,0.1-1.4,0.8-1.3,1.6c0,0,0,0.1,0,0.1c0,0.3-0.1,0.5-0.3,0.7c-0.1,0.1-0.2,0.1-0.3,0.1
			c-0.7,0-1.2-0.6-1.7-1.1c-1.3-1.4-3.6-1.4-4.9-0.1c-0.2,0.2-0.4,0.5-0.6,0.8c-0.4,0.7-0.6,1.5-1.1,2.2c0,0.1-0.2,0.3-0.3,0.3
			s0.5-0.2,0.4-0.1s-0.8-0.5-0.8-0.6c-1.4-1.4-1.3-3.8-1.1-5.6S431.6,130.2,431.4,132L431.4,132z"></path><path class="st3" d="M429,147.7c1.6-2.1,4.6-2.5,6.6-1c0.6,0.4,1,1,1.4,1.6c0.5,1.1,0.7,2.3,0.7,3.5"></path><path class="st3" d="M430.5,148.4c-0.2,0.2,0.1-0.1,0.1-0.1s0.1-0.1,0.2-0.2s0.2-0.2,0.3-0.2s-0.2,0.1,0.1,0s0.4-0.2,0.6-0.4
			s0.2-0.1,0,0l0.4-0.1l0.4-0.1c0.3-0.1-0.2,0,0,0s0.6-0.1,0.7,0c-0.1-0.1-0.3,0,0,0l0.4,0.1c0.4,0.1,0,0,0,0c0.1,0,0.2,0.1,0.4,0.1
			l0.3,0.1c0.2,0.1-0.2-0.2,0,0s0.4,0.3,0.6,0.5c-0.2-0.1-0.1-0.1,0,0l0.2,0.2l0.2,0.3c-0.1-0.2,0,0.1,0.1,0.1
			c0.1,0.2,0.2,0.5,0.3,0.7c0.1,0.4,0-0.2,0.1,0.2c0,0.1,0,0.2,0.1,0.4c0.1,0.6,0.1,1.1,0.1,1.7c0,0.8,1.1,1.4,1.8,1.4
			c0.8,0,1.5-0.6,1.5-1.4c0,0,0,0,0-0.1c0.1-1.4-0.3-2.8-0.9-4c-0.7-1.3-1.8-2.3-3.2-2.8c-2.8-1.2-6-0.3-7.8,2.1
			c-0.5,0.7,0.1,1.7,0.8,2c0.8,0.4,1.7,0.2,2.2-0.5L430.5,148.4z"></path><path class="st3" d="M444.6,142.9c-0.8,0.7-1.3,1.6-1.5,2.7c0,0.2,0,0.4,0,0.6c0.1,0.2,0.2,0.4,0.4,0.5c0.3,0.2,0.6,0.5,0.9,0.6
			c0.2,0.1,0.4,0.2,0.7,0.2c0.3,0,0.6-0.2,0.8-0.4c0.7-0.5,1-1.3,1.1-2.1c-0.1-0.7-0.5-1.3-1-1.8"></path><path class="st3" d="M443.5,141.6c-0.6,0.5-1.1,1.3-1.3,2.1c-0.2,0.4-0.2,0.9-0.1,1.3c0.1,0.4,0.4,0.8,0.7,1.1
			c0.4,0.5,0.8,0.9,1.3,1.4c0.4,0.4,0.9,0.8,1.5,1.1c0.4,0.3,0.9,0.3,1.3,0c0.7-0.5,1.2-1.2,1.4-2c0-0.6-0.1-1.1-0.5-1.6
			c-0.4-0.7-0.9-1.3-1.5-1.9c-0.3-0.3-0.5-0.6-0.9-0.8c0,0-0.4-0.3-0.5-0.2s0.1,0.4,0.2,0.5c0.2,0.3,0.5,0.7,0.7,0.9l0.2,0.2
			l-0.1-0.2l0.1,0.1l-0.1-0.2l-0.1-0.1l0.1,0.1c-0.1-0.1-0.1-0.1,0,0l0.1,0.1l0,0c0,0.1,0,0.1,0,0.2c0,0.2,0,0.4,0,0.6v-0.1
			c-0.1,0.4-0.3,0.8-0.6,1.2c-0.3,0.4-0.7,0.7-1.1,0.8h0.1c-0.1,0-0.2,0-0.3,0c-0.1,0-0.1,0-0.2-0.1c-0.1,0-0.2-0.1-0.3-0.2
			c0.1,0.1,0.1,0.1,0,0l-0.2-0.1c-0.1-0.1,0.2,0.2,0.1,0.1s-0.2-0.2,0,0c0.2,0.2,0.4,0.4,0.5,0.6c0.2,0.1,0.4,0.3,0.5,0.6
			c0,0,0-0.1,0-0.1c0-0.2,0-0.4,0-0.6v0.1c0.2-0.9,0.7-1.8,1.4-2.4c0.1-0.1-0.1-0.5-0.2-0.5c-0.2-0.3-0.4-0.7-0.7-0.9
			c-0.3-0.3-0.6-0.6-0.9-0.8C443.9,141.8,443.6,141.6,443.5,141.6L443.5,141.6z"></path></g></g><g id="character-2"><path class="st1" d="M437,380.1c0.5,16.3,2.1,32.5,4.7,48.5c0.1,0.8,1.8,1.6,2.4,1.9c0.2,0.1,1.8,1,1.8,0.5
		c-2.6-16-4.2-32.1-4.7-48.2c0-0.7-1.4-1.4-1.9-1.7C439.2,381.1,437,379.9,437,380.1L437,380.1z"></path><path class="st1" d="M345.6,383.6c0,0-6.9-115.1,37.6-126.9s61.6,80.2,69.1,126.3C452.4,383,381.2,399.1,345.6,383.6z"></path><path class="st1" d="M348.1,384c-0.2-3.2-0.3-6.4-0.3-9.6c-0.1-8,0-16,0.3-24c0.4-10.4,1.4-20.8,2.9-31.2
		c1.4-10.5,3.9-20.8,7.4-30.9c3.1-8.5,7.3-16.9,13.9-23.2c2.8-2.7,6.1-4.9,9.7-6.3c1.9-0.8,3.9-1.3,6-1.5c0.6-0.1,1.1-0.1,1.7-0.2
		c0.1,0,0.8,0,0.3,0h1c0.5,0,1.1,0,1.6,0l0.8,0c-0.6,0,0.1,0,0.3,0c0.5,0.1,1,0.1,1.5,0.2l0.8,0.1c0.5,0.1,0,0-0.1,0l0.5,0.1
		c0.5,0.1,1,0.3,1.5,0.4l0.7,0.2l0.4,0.1c0.3,0.1-0.4-0.1,0.1,0c1.9,0.7,3.8,1.7,5.5,2.9c3.8,2.7,7.2,6,10,9.7
		c7.1,9.1,11.9,19.8,15.9,30.5c4.5,12.4,8.2,25,11,37.9c2.8,11.9,5,24,7.1,36c0.4,2.5,0.9,5,1.3,7.5l0.8-1.1l-0.5,0.1l-0.2,0.1
		c-0.5,0.1,0.6-0.1,0.1,0l-0.9,0.2c-1.8,0.4-3.6,0.7-5.4,1.1c-6.2,1.2-12.4,2.2-18.6,3c-17.3,2.4-34.9,3.7-52.2,2.3
		c-8.9-0.7-18-2.3-26.1-5.8c-1-0.4-2.5-0.8-3.5-0.1s-0.1,1.5,0.6,1.8c8,3.3,16.5,5.4,25.1,6.2c9.3,1,18.7,1.3,28.1,0.8
		c15.7-0.7,31.4-2.5,46.9-5.4c3.2-0.6,6.5-1.2,9.7-2c0.5-0.1,0.9-0.5,0.8-1c0,0,0,0,0,0c-1.9-11.7-4-23.4-6.5-35
		c-2.7-13.1-6.1-26.1-10.3-38.8c-3.9-11.6-8.5-23.1-15.2-33.4c-5.4-8.3-12.5-16-22-19.5c-9-3.2-18.9-2.2-27.1,2.6
		c-7.6,4.6-12.9,12.2-16.7,20.1c-4.6,9.5-7.4,19.7-9.4,30c-2,10.7-3.4,21.5-4.1,32.3c-0.6,9-0.9,18-0.9,27c0,4.7,0.1,9.5,0.3,14.2
		c0,0.2,0,0.4,0,0.6C343.3,385,348.2,385.5,348.1,384z"></path><path class="st1" d="M376.3,400l15.3,24.2c0.3,0.5,2,0.3,2.5,0.3c0.8-0.1,1.7-0.2,2.5-0.5l-15.3-24.2c-0.3-0.5-2-0.3-2.5-0.3
		C377.9,399.6,377.1,399.8,376.3,400L376.3,400z"></path><path class="st0" d="M353,217.6c0,0-4.6-32,22.8-38.3s56.5,19.9,51.7,53.4s-46,29.7-46,29.7L353,217.6z"></path><path class="st1" d="M355.3,216.6c0,0,0-0.1,0-0.1c0,0.6,0,0,0-0.1c0-0.5-0.1-1.1-0.1-1.6c-0.1-1.9-0.1-3.8,0-5.7
		c0.2-5.5,1.5-10.9,4-15.9c1.4-2.7,3.3-5.2,5.6-7.2c2.6-2.2,5.7-3.9,9-4.8c7.8-2.1,16.1-1.6,23.6,1.6c16.3,6.6,27.3,23.2,28.3,40.6
		c0.4,8.1-0.9,16.7-5.5,23.5c-1.7,2.5-3.7,4.6-6.1,6.4c-2.2,1.6-4.6,3-7.1,4c-0.6,0.3-1.3,0.5-1.9,0.8l-1,0.4l-0.7,0.2
		c-1.3,0.4-2.7,0.8-4.1,1c-0.6,0.1-1.2,0.3-1.9,0.4c0.5-0.1-0.5,0.1-0.6,0.1l-1,0.2c-1.2,0.2-2.4,0.3-3.6,0.4
		c-1,0.1-2.1,0.2-3.1,0.2l-1.4,0c0.6,0-0.1,0-0.2,0h-0.6c-1.1,0-2.3-0.1-3.4-0.1c-0.2,0-0.3,0-0.5,0l1,0.5l-9.6-15.2l-15.3-24.2
		L355.3,216.6c-0.9-1.5-5.4,0.6-4.6,1.9l8.5,13.4l14.6,23.1l4.6,7.2c0.2,0.4,0.4,0.8,0.7,1.1c0.5,0.4,1.1,0.7,1.7,0.6
		c5.8,0.3,11.6-0.1,17.2-1.3c8.9-1.8,17.6-5.8,23.8-12.6c8-9,9.7-21.9,7.9-33.4c-2.1-12.6-9.1-23.9-19.4-31.4
		c-10-7.3-22.6-9.9-34.6-7.2c-5.8,1.3-11.1,4.1-15.4,8.2c-3.3,3.3-5.8,7.3-7.4,11.7c-2.1,6.2-2.9,12.8-2.3,19.3
		c0,0.4,0.1,0.9,0.2,1.4C350.9,220,355.5,218.5,355.3,216.6z"></path><path class="st0" d="M348.4,244.8c-7.1-13.4,9.8-52.9,9.8-52.9c8.8-9.2,42.5,4.4,42.5,4.4c-7,9.6-8.9,27.3-8.9,27.3
		c6-8.7,16.2-2.4,13.8,6.8s-13.9,9.7-13.9,9.7s-0.9,20.3-2.5,23.8s-20,5.4-27-7C362.2,257,354.6,256.5,348.4,244.8z"></path><path class="st1" d="M350.8,244.4c-1.5-2.8-1.7-6.1-1.6-9.2c0.1-4,0.6-7.9,1.4-11.8c1.7-7.8,4-15.6,6.8-23.1
		c0.8-2.3,1.7-4.6,2.6-6.8c0.2-0.4,0.3-0.9,0.5-1.3c0-0.1,0.1-0.1-0.1,0.1c0.2-0.2,0.4-0.4,0.7-0.6c0.5-0.4,1.1-0.7,1.7-1
		c-0.3,0.1,0.4-0.2,0.6-0.2l0.6-0.2c0.6-0.2-0.5,0.1,0.2-0.1l1-0.2l0.6-0.1c-0.6,0.1,0.4,0,0.5,0c1.6-0.2,3.3-0.2,4.9,0
		c4,0.4,7.9,1.1,11.8,2.1c5.4,1.3,10.7,3.1,15.9,5.1l-0.7-1c-3.7,5.1-5.6,11.3-7.1,17.4c-0.8,3.4-1.4,6.8-1.9,10.2
		c-0.1,0.8,1.8,0.9,2.2,0.9c1,0.1,2-0.2,2.7-0.9c0.8-1.3,2-2.4,3.5-3c0.1-0.1,0.3-0.1,0.5-0.1c0,0,0.4-0.1,0.2,0s0.4,0,0.1,0
		s0.2,0,0.2,0c-0.3,0,0.1,0,0.1,0c0.2,0,0.4,0.1,0.7,0.2c2.4,1.2,3.9,3.5,4.1,6.1c0.5,5.8-3.9,10-8.8,11.5l-0.8,0.2
		c0.5-0.1-0.1,0-0.3,0.1c-0.4,0.1-0.9,0.2-1.3,0.2c-0.2,0-0.9,0,0,0c-0.1,0-0.2,0-0.3,0h-0.3c-0.7,0-2.4,0.3-2.4,1.2
		c-0.2,3.8-0.4,7.5-0.7,11.3c-0.2,2.8-0.5,5.6-0.9,8.3c-0.1,1-0.3,2-0.5,2.9c-0.1,0.3-0.2,0.6-0.3,0.8c0,0.1-0.1,0.2-0.2,0.3
		c-0.1,0.3,0.1,0-0.1,0.1l-0.3,0.3c-0.1,0.1,0.2-0.1-0.2,0.1l-0.5,0.2c-0.1,0-0.4,0.1,0.1,0l-0.4,0.1l-0.6,0.2
		c-0.6,0.2,0.1,0-0.3,0.1l-0.8,0.2c-0.2,0-0.9,0.1-0.7,0.1s-0.5,0-0.7,0l-0.8,0c-0.5,0-1.1,0-1.6,0c-1.3-0.1-2.5-0.2-3.8-0.5
		c-2.8-0.6-5.4-1.9-7.6-3.7c-1.2-1-2.3-2.2-3.1-3.5c-0.2-0.3-0.4-0.7-0.7-1.1c-0.4-0.5-1-0.7-1.6-0.8c-1-0.2,0.4,0.1,0.1,0
		c-0.2-0.1-0.4-0.1-0.7-0.1c-0.4-0.1,0.4,0.1-0.1,0c-0.2-0.1-0.4-0.1-0.6-0.2c-1-0.4-2-0.9-2.9-1.5
		C355.4,251.5,352.6,248.2,350.8,244.4c-0.7-1.3-5.6-0.6-4.8,0.9c3.1,5.8,8.5,12.3,15.6,12.8l-1.8-0.6c5,8.6,16.5,11.7,25.9,9.7
		c1.7-0.3,3.4-0.9,4.9-1.9c0.9-0.7,1.4-1.8,1.6-3c0.8-4.1,1.3-8.3,1.4-12.4c0.3-3.3,0.5-6.6,0.6-9.9l-2.4,1.2
		c4.8-0.3,10.2-2.1,13.4-5.6c2.6-2.7,3.7-6.4,3-10.1c-0.7-3.4-3.3-6-6.7-6.8c-4.7-1.1-9.5,0.8-12.2,4.8h4.9c0.4-3.3,1-6.6,1.8-9.9
		c1.4-6,3.4-12.1,7-17.1c0.4-0.5-0.4-0.9-0.7-1c-4.6-1.9-9.4-3.5-14.2-4.8c-4.2-1.2-8.5-2.1-12.9-2.7c-4.1-0.6-8.3-0.6-12.4,0.2
		c-1.8,0.3-3.5,1-5,1.9c-0.8,0.4-1.5,1.1-2.1,1.9c-0.8,1.7-1.5,3.4-2.1,5.2c-2.9,7.4-5.2,14.9-7.1,22.6c-1.2,4.7-2,9.4-2.3,14.2
		c-0.2,3.8,0,7.8,1.8,11.3C346.7,246.6,351.5,245.9,350.8,244.4z"></path><path class="st0" d="M362.7,230.7c0,0-22.5-2.2-23.6-14.5s15.8-13.8,25.7-1.3"></path><path class="st1" d="M364.8,230.1c-5.9-0.6-12.2-2.3-17.2-5.5c-3.5-2.3-6.1-5.6-6.1-9.9c-0.1-2.1,0.6-4.1,2-5.7
		c0.6-0.7,1.4-1.3,2.2-1.7c0.2-0.1,0.4-0.2,0.6-0.2l0.2-0.1h-0.1h0.3c6.1-0.2,11.9,3.9,15.6,8.4c0.4,0.5,2,0.1,2.5,0
		c0.2,0,2.6-0.7,2.4-0.9c-3.8-4.7-9.2-8.3-15.3-8.8c-4.8-0.4-11.7,0.6-14.3,5.2c-2.3,4.1-1,9.2,2.2,12.4s7.6,5,11.9,6.2
		c2.9,0.9,5.8,1.4,8.8,1.8c1.1,0.1,2.3-0.1,3.4-0.4C364.3,230.8,365.8,230.1,364.8,230.1L364.8,230.1z"></path><path class="st1" d="M367.2,208.2c0.9,0.5,1.3,1.6,0.8,2.5c0,0.1-0.1,0.2-0.2,0.2c-1.2,1.7-3.3,0.2-2.7-1.5
		c0.1-0.9,0.9-1.4,1.8-1.3C367.1,208.2,367.1,208.2,367.2,208.2z"></path><path class="st1" d="M380.5,212c0.9,0.5,1.3,1.6,0.8,2.5c0,0.1-0.1,0.2-0.1,0.2c-1.2,1.7-3.3,0.2-2.7-1.5c0.1-0.9,0.9-1.4,1.8-1.3
		C380.4,212,380.4,212,380.5,212z"></path><path class="st0" d="M379.3,238.2l-53.3,7c0,0-3.7,4.1-11.5,1.9s-7-9.1-1.7-10.9s13.1,2,13.1,2s46.5-5.1,48.3-5.1
		S379.3,236.9,379.3,238.2z"></path><path class="st3" d="M378.1,236l-24.5,3.2c-9.4,1.2-18.9,2.4-28.3,3.7c-0.8,0.1-1.3,0.8-2,1.2c-3.4,2-8,1.8-11.5,0.2
		c-0.8-0.4-1.6-1-2.3-1.5c-0.4-0.2,0.7,1.3,0.7,1.2c0-0.3-0.1-0.7-0.1-1c0.1-1.4,0.9-2.7,2-3.6c3.2-2.5,8-1.5,11.6-0.4
		c1.1,0.3,2.1,1,3.2,1.2c0.2,0,0.4,0,0.6,0c1.4-0.1,2.7-0.3,4.1-0.4l16.3-1.8c6.1-0.7,12.1-1.3,18.2-1.9l6.4-0.6c1-0.2,2-0.3,3-0.2
		c0.7,0.2,1.4,0.6,1.9,1.1c0.4,0.3,0.7,0.6,1,0.9c0.9,1-0.3,0-0.4-1.3c0.2,1,0.6,2,1.2,2.8c0.1,0.2,1.4,1.7,1.4,1.2
		c-0.2-2.2-1.8-4.5-3.2-6.1c-1-1.2-2.6-3-4.3-3.1c-1.1,0-2.2,0.1-3.2,0.2c-5.5,0.5-11,1.1-16.6,1.7l-19.3,2.1l-6.8,0.8l-1.9,0.2
		c-0.1,0-0.8,0-0.5,0.1c-1-0.2-2.1-0.9-3.1-1.2c-2-0.7-4.1-1.1-6.2-1.2c-3.4-0.2-7.5,1.2-8,5.1c-0.2,2,0.8,4.1,1.9,5.8
		c1.1,1.8,2.6,3.3,4.5,4.2c3.6,1.6,8.4,1.9,11.9-0.2c0.8-0.5,1.2-1.1,2.1-1.2l4.3-0.6l16.9-2.2l30.9-4.1l0.6-0.1
		c0.4,0-0.7-2.2-0.8-2.4C379.5,237.6,378.7,235.9,378.1,236z"></path><path class="st3" d="M319,237.4c2.9,0.7,3.1,1.6,4.8,2.8c20.4-2.2,47.3-6.3,48.3-5.8c0.9,0.6,1.6,1.5,2.1,2.5l-49.5,6.8
		c-0.3,0.3-0.6,0.5-0.9,0.7c0,0-6.3,3.3-10.3,0S313.1,236.1,319,237.4z"></path><path class="st0" d="M365.8,238l-2.4-3.7c-0.3-0.5-0.8-0.8-1.4-0.8c-0.6-0.1-1.3,0.1-1.8,0.4c-0.5,0.3-1,0.9-1.1,1.5
		c-0.2,0.5-0.1,1.1,0.2,1.6l2.4,3.7c0.3,0.5,0.8,0.8,1.4,0.8c1.3,0.1,2.6-0.7,3-1.9C366.2,239.1,366.1,238.5,365.8,238L365.8,238z"></path><path class="st0" d="M351.5,242c-1-2-2.2-4-3.5-5.9c-0.3-0.4-0.6-0.8-0.9-1.2c-0.1-0.1-0.4-0.4-0.4-0.1l0,0.3
		c0.1,0.3,0.2,0.6,0.4,0.8c0.3,0.6,0.6,1.1,1,1.7c0.2,0.3,0.4,0.7,0.7,1l-0.2-0.4l0.1,0.1l0.1,0.2l0.3,0.5c0.2,0.4-0.4-0.6-0.2-0.3
		l0.2,0.3l0.3,0.5l0.1,0.3l-0.2-0.4l0.1,0.1l0.3,0.6c0.3,0.6,0.6,1.1,1,1.7c0.3,0.4,0.6,0.8,0.9,1.2c0.1,0.1,0.4,0.4,0.4,0.1
		l-0.1-0.3C351.8,242.6,351.7,242.3,351.5,242L351.5,242z"></path><path class="st0" d="M340,241.9l-1.8-3.8c-0.1-0.3-0.4-0.5-0.6-0.7c-0.2-0.2-0.5-0.4-0.8-0.5c-0.6-0.2-1.2-0.3-1.9-0.1
		c-0.5,0.1-1,0.5-1.2,1l-0.1,0.5c0,0.4,0.1,0.7,0.3,1l1.8,3.8c0.1,0.3,0.4,0.5,0.6,0.7c0.2,0.2,0.5,0.4,0.8,0.5
		c0.6,0.2,1.2,0.3,1.8,0.1c0.5-0.1,1-0.5,1.2-1l0.1-0.5C340.3,242.5,340.2,242.2,340,241.9L340,241.9z"></path><path class="st1" d="M373.1,233.8c0.4,0.2,0.8,0.5,1.2,0.7c0.2,0.1,0.4,0.2,0.5,0.4l0.3,0.2c0.4,0.3-0.5-0.4-0.1-0.1
		s0.6,0.6,0.9,0.9c0.1,0.2,0.3,0.3,0.4,0.5c0.1,0.1,0.2,0.2,0.2,0.3c0.1,0.1,0.3,0.4,0,0s0,0,0,0.1l0.2,0.3c0.1,0.2,0.2,0.4,0.4,0.6
		s0.2,0.4,0.4,0.6c0.1,0.2,0.2,0.4,0.3,0.6c-0.1-0.1-0.3-0.6-0.1-0.2l0.1,0.3c0.1,0.2,0.1,0.4,0.2,0.6c0.1,0.5,0.3,0.9,0.4,1.4
		c0.2,0.6,0.6,1.2,1.2,1.6c0.5,0.3,1.1,0.5,1.7,0.4c0.6-0.1,1-0.5,1.3-1c0.2-0.6,0.2-1.2,0.1-1.8c-0.9-4.4-3.7-8.1-7.5-10.3
		c-0.5-0.3-1.1-0.4-1.7-0.4c-0.5,0.1-1,0.5-1.3,1C371.6,231.7,372,233.1,373.1,233.8L373.1,233.8z"></path><g class="st4"><path class="st1" d="M390.5,193.4c-1.7,5.5-3.3,11-4.7,16.5c-0.2,0.9,1.2,1,1.8,1.1c0.6,0,1.3-0.1,1.9-0.2c0.3-0.1,1-0.3,1.1-0.7
			c1.4-5.6,3-11.1,4.7-16.5c0.3-0.9-1.2-1.1-1.8-1.1S390.8,192.5,390.5,193.4L390.5,193.4z"></path></g><g class="st4"><path class="st1" d="M384.4,190.9c-0.9,2.2-1.7,4.4-2.3,6.6c-0.6,2.3-1,4.6-1.5,6.9c-0.2,0.9,1.7,1.4,2.3,1.5s2.4,0.2,2.6-0.8
			c0.5-2.3,0.9-4.6,1.5-6.9c0.6-2.3,1.4-4.5,2.3-6.6c0.1-0.3-0.4-0.8-0.6-0.9c-0.5-0.3-1.1-0.5-1.7-0.6
			C386.2,190,384.8,189.9,384.4,190.9L384.4,190.9z"></path></g><g class="st4"><path class="st1" d="M378.5,188.2c-1.2,3.2-2,6.6-3,9.9c-0.2,1.2,0.4,2.3,1.4,2.9c0.5,0.4,2.2,1.2,2.5,0.1c1-3.3,1.8-6.6,3-9.9
			c0.4-1.1-0.5-2.4-1.4-2.9C380.4,187.8,378.8,187.1,378.5,188.2L378.5,188.2z"></path></g><g class="st4"><path class="st1" d="M370,190.4c-0.5,1.2-0.9,2.4-1.1,3.6c-0.3,1.1-0.7,2.2-1.2,3.2l0.2-0.4l-0.3,0.6c-0.3,0.4-0.3,0.9-0.1,1.3
			c0.3,0.4,0.7,0.7,1.3,0.8c0.6,0.2,1.3,0.1,1.9-0.1c0.6-0.1,1.1-0.5,1.4-0.9c0.7-1.3,1.3-2.6,1.6-4c0.3-1.3,0.7-2.6,1.2-3.8
			c0.1-0.4,0-0.9-0.4-1.2c-0.4-0.4-1-0.6-1.6-0.6C371.8,188.8,370.6,189.4,370,190.4z"></path></g><g class="st4"><path class="st1" d="M362.6,188.6c-0.9,3.8-2.1,7.5-3.7,11c-0.6,1.3,3.5,4,3.8,3.2c1.6-3.7,2.9-7.5,3.8-11.4
			c0.1-0.3-0.4-0.9-0.6-1.1c-0.4-0.5-0.9-0.9-1.4-1.3C364.2,188.7,362.8,187.8,362.6,188.6L362.6,188.6z"></path></g><path class="st0" d="M443.2,188.3c0,0,6.5,13.5,8.4,21.8s-3,8.3-4,14.4s-26.4,4.6-36.6-9.5s-15.3-16.2-23.5-24.1
		s-13.4-28.1,0.3-33.6s18.9,8.4,29.5,8.5s14.1,6.6,14.1,6.6s8.5-6,12.2-2.8s5.1,8.3,5.1,8.3s-5.5-1.8-2.6,1.8
		S447.8,190.2,443.2,188.3z"></path><path class="st3" d="M441,189.6c2.6,5.3,4.9,10.8,6.9,16.4c1.1,3.3,2.8,7.5,1.6,10.9c-0.5,1.2-1.1,2.3-1.9,3.3
		c-0.9,1.3-1.6,2.8-2,4.3c-0.1,0.3-0.1,0.5-0.2,0.8c-0.1,0.5,0-0.2,0,0.1s-0.1,0.6,0,0.1c0,0.3-0.4,0.3,0,0
		c-0.5,0.3,0.4-0.3-0.1,0.1c0.8-0.6-0.6,0.2,0.3-0.2l-0.5,0.2c-0.4,0.2,0.1,0,0.1,0l-0.4,0.1c-0.3,0.1-0.6,0.2-0.8,0.2
		c0.1,0-0.2,0-0.5,0.1s-0.5,0.1-0.8,0.1c-0.7,0.1-1.4,0.1-2,0.1c-1.4,0-2.9-0.1-4.3-0.3c-6.9-0.8-13.5-3.5-19-7.8
		c-3.4-2.8-5.8-6.6-8.6-10.1c-2.5-3.1-5.3-6-8.2-8.8c-4.7-4.4-10.4-8.1-14-13.5s-5.9-12.4-4.9-19c0.2-1.5,0.7-2.9,1.4-4.2
		c0.6-1.1,1.4-2.1,2.4-2.9c1.2-0.9,2.6-1.5,4.1-1.8c1.6-0.4,3.3-0.5,4.9-0.2c6.4,1,10.7,6.6,16.6,8.8c3.7,1.3,7.6,0.7,11.3,2
		c2.4,0.8,4.5,2.3,6.2,4.2c0.2,0.3,0.5,0.6,0.6,0.9c0.6,1.1,2.8-0.4,3.3-0.7c-0.9,0.6,0,0,0.4-0.2l1-0.6l0.6-0.3
		c0.5-0.3-0.3,0.1,0.3-0.1c1.6-0.8,3.2-1.6,5.1-1.4c2.3,0.2,3.9,2.9,4.9,4.7c0.8,1.3,1.4,2.7,1.8,4.2l4.1-2.8
		c-1-0.4-2.2-0.6-3.3-0.6c-1.7,0.1-4.9,1.7-4.1,3.8c0.5,0.8,1,1.7,1.6,2.4c0.5,0.9,0.7,1.9,0.8,2.9c0,0.9-0.2,1.7-0.5,2.5
		c-0.1,0.3-0.2,0.1,0,0.1c0.3-0.2,0.7-0.4,1-0.6c0-0.1-0.6-0.1-0.8-0.3c-1-0.4-2.3,0.3-3,0.9c-0.3,0.3-1.8,1.7-0.8,2.1
		c4.7,1.8,9.2-2.7,8.6-7.4c-0.4-1.9-1.2-3.7-2.4-5.2c-0.6-0.9-1.9,2.4-2.6,1.9c0.2,0.1,0,0,0.1,0c0.3,0.1,0.6,0.1,0.9,0.1l0.8,0.2
		c-0.3-0.1,0,0,0.1,0c1.3,0.4,4.5-1.1,4.1-2.8c-1.1-4-4.1-9.6-8.7-9.6c-4.2,0-8.5,2.4-11.9,4.8l3.3-0.7c-0.9-1.4-2-2.6-3.4-3.5
		c-3.3-2.4-7.4-3.3-11.5-3.4c-7-0.3-11.6-6.4-17.8-8.7c-7.4-2.8-17.2,0.3-21.4,7.2c-3.8,6.1-2.7,13.9-0.1,20.3
		c1.2,3.2,3,6.1,5.3,8.6c2.5,2.6,5.2,5,8,7.3c2.8,2.4,5.5,4.9,8.1,7.6c1.6,1.7,3.1,3.6,4.6,5.4s3,4.1,4.6,6
		c5.1,5.8,12.4,9.2,19.8,10.8c5.5,1.1,12.8,1.8,17.6-1.9c0.9-0.7,1.7-1.6,2.1-2.6c0.3-1.4,0.8-2.8,1.5-4.1c0.9-1.2,1.7-2.5,2.4-3.9
		c0.7-1.7,0.9-3.7,0.6-5.5c-0.6-4.2-2.3-8.3-3.8-12.2c-1.3-3.3-2.8-6.6-4.3-9.9l-0.8-1.6C444.7,185.7,440.3,188.1,441,189.6z"></path><path class="st3" d="M434.5,189.2c-3.6,6.1-6.8,12.6-9.4,19.2c-1,2.5,3.8,3.8,4.7,1.5c2.6-6.6,5.7-13.1,9.4-19.2
		c0.6-1.1-0.6-2.2-1.5-2.5C436.5,187.8,435.2,188.2,434.5,189.2L434.5,189.2z"></path><path class="st3" d="M431.5,176.2l-8.7,0.6c-2.9,0.2-5.8,0.3-8.7,0.7c-2.4,0.4-4.6,1.5-6.3,3.3c-1.3,1.4-2.3,3.2-3.8,4.5
		c-0.8,0.6-1.6,1.7-0.7,2.6s2.5,0.5,3.3-0.2c1.4-1.3,2.7-2.7,3.9-4.3c1.1-1.4,2-2.3,3.9-2.5c5.3-0.4,10.7-0.8,16-1.1
		c1.3,0,2.4-0.8,2.9-1.9C433.6,176.8,432.5,176.1,431.5,176.2L431.5,176.2z"></path><path class="st3" d="M402.4,168.1h-11.1c-0.7,0,0.3,1.6,0.4,1.8c0.3,0.6,0.7,1.1,1.1,1.6c0.2,0.2,0.6,0.8,0.9,0.8h11.1
		c0.7,0-0.2-1.6-0.4-1.8c-0.3-0.6-0.7-1.1-1.1-1.6C403.1,168.7,402.7,168.1,402.4,168.1z"></path><path class="st1" d="M448.9,191.2c-3.7-3.4-5.9-8-9.4-11.6c-1.5-1.6-3.6-3.4-5.8-3.7c-1.6-0.3-7,0.8-6.3,3.3c0.3,1,1.6,1.6,2.5,2.1
		c1.4,0.8,2.9,1.2,4.5,1.3c1.7,0,3.3-0.4,4.8-1.2c1.2-0.6,1.9-1.8,1.7-3.1c-0.1-2.6-1.1-5.1-2.9-6.9c-2-2.1-4.3-3.1-7.1-2
		c-1.6,0.6-3,1.4-3.2,3.2c-0.1,1.4,0.2,2.8,1,3.9c1.5,2.3,4.2,3.6,7,3.3c0.4,0,4.5-1.3,3.8-1.9c-4.7-5.3-11.9-6.9-18.6-5.1
		c-0.7,0.2-2.5,0.7-2.7,1.5s1.7,0.3,2,0.2c5.2-1.4,11.2,1.1,14.7,5.1l3.8-1.9c-1.9,0.1-3.7-0.8-4.8-2.3c-0.6-0.7-1-1.5-1.2-2.4
		c-0.1-0.4-0.2-0.9-0.2-1.3c0-0.6,0.5-1.5-0.4-1.1l-1.8,0.6c0.5-0.1,1.8,0.9,2.2,1.2c0.7,0.6,1.3,1.2,1.9,1.9
		c1.1,1.5,1.7,3.3,1.9,5.1c0,0.4,0,0.7,0,1.1c0,0.3,0,0.6-0.1,0.8c1.9-0.5,2.4-0.7,1.3-0.8c-0.6-0.2-1.2-0.3-1.8-0.5
		c-0.4-0.2-0.8-0.4-1.2-0.6c-0.7-0.4-2-0.9-2.2-1.8c-0.1-0.2-0.1-0.3,0-0.5c0.3-1-0.5-0.6-2.5,1c0.4,0.1,0.8,0.2,1.1,0.4
		c6.3,2.9,8.9,10.3,13.8,14.8C445.4,194,449.7,191.9,448.9,191.2L448.9,191.2z"></path><path class="st1" d="M358.7,428.5v-42c0-1.5-4.6,0.2-4.6,1.6v42C354.2,431.6,358.7,429.9,358.7,428.5L358.7,428.5z"></path><path class="st3" d="M335,225.8c-1.1-0.4-2.3-0.5-3.5-0.2c-0.4,0.1-0.7,0.2-1.1,0.3s-0.4,0-0.1,0c0.3,0,0.6,0.1,0.9,0.2
		c0.6,0.4,0.4,0.9,0.6,0.2c0.1-0.3,0.3-0.6,0.4-1c0.2-0.8,0-1.7-0.7-2.3c-1.5-1.3-3.7-1.5-5.4-0.5c-1.7,1-3.3,2.2-4.9,3.5l4.3,0.7
		c-1.3-2.1-2.8-3.9-5.2-4.6c-2.1-0.6-5-0.2-6.1,1.9s3.6,3.4,4.6,1.6c0.1-0.2,0.2-0.3,0.4-0.4c-0.1,0.1-0.4,0.1,0,0
		c-0.2,0-0.2,0-0.1,0s0.1,0-0.1,0c0.3,0,0.3,0,0,0s-0.2-0.1,0,0c0.2,0.2,0.6,0.5,0.9,0.9c0.4,0.5,0.8,1.1,1.1,1.6
		c1,1.3,2.9,1.6,4.3,0.7c1.4-1,2.8-2,4.1-3c-0.2,0.2,0.4-0.3,0,0c1-0.2,0.3-0.5-2.1-1c0-0.1,0-0.1,0,0.2c-0.2,0.5-0.4,1-0.5,1.5
		c-0.2,1.8,1.5,2.9,3.1,3.1c0.8,0.1,1.6,0.1,2.3,0c0.4-0.1,0.8-0.2,1.2-0.4c0.6-0.2,0.1,0.1-0.2-0.1c0.9,0.4,2.6,0.3,3.2-0.6
		s-0.6-1.9-1.4-2.3L335,225.8z"></path><path class="st3" d="M425.8,262.5c1.3,0,2.7-0.2,3.9-0.7c1.3-0.5,2.4-1.3,3.1-2.5c0.8-1.5-0.2-3.3-1.2-4.3c-1-1.1-2.4-1.8-3.8-2.1
		l2.5,3.1c0,0.2,0.1-0.3,0.2-0.4c-0.1,0.2,0.2-0.2,0.2-0.2c0.3-0.3,0.6-0.5,0.9-0.7c0.6-0.4,1.3-0.8,1.9-1.2
		c1.5-1.2,2.4-3.2,2.2-5.1c-0.2-1.2-0.9-2.3-2-2.8c-0.6-0.3-2-0.6-1.9,0.6c0.1,1.7-0.8,3.3-2.3,4.1c-0.7,0.4-1.3,0.8-1.9,1.2
		c-0.7,0.6-1.1,1.4-1.2,2.3c-0.2,1.1,1.5,2.8,2.5,3.1c0.3,0.1,0.7,0.2,1,0.3s-0.2-0.1,0.1,0.1s-0.3-0.3,0.1,0
		c-0.4-0.3-0.7-0.7-0.8-1.1c-0.1-0.2,0.1-0.2-0.1,0c-0.2,0.3-0.4,0.6-0.7,0.8c-1.3,1.1-2.9,1.6-4.6,1.6c-1.1,0-1.1,1.1-0.7,1.9
		S424.6,262.5,425.8,262.5L425.8,262.5z"></path><path class="st3" d="M437.9,290.9c-0.5,2.9-0.8,5.7,0.3,8.5c0.9,2.3,2.5,5,5,5.8c0.2,0.1,0.5,0.1,0.8,0.2c0.7,0.3,0.6,0-0.1-0.9
		c-0.3-1.1-0.4-1.4-0.5-0.7c-0.3,0.4-0.5,0.9-0.6,1.4c-0.2,1.4,0.9,3.1,1.6,4.2c0.7,0.8,1.3,1.7,1.9,2.6c0.5,1.2,0.8,2.5,0.8,3.8
		c0.2,1.2,0.6,2.2,1.4,3.1c0.2,0.3,1.3,1.4,1.3,0.4c-0.1-2.3-0.7-4.6-1.6-6.7c-0.5-1.1-1.1-2.2-1.8-3.3c-0.3-0.5-0.7-1-1-1.5
		c-0.2-0.2-0.4-0.5-0.5-0.7c-0.5-0.6-0.6-1.2,0.3,0.7l0.4,1.5c-0.1-0.6,0.5-1.1,0.6-1.7c0.1-0.7,0-1.4-0.2-2.1
		c-0.5-1.5-1.5-3.5-3-4.2c-0.7-0.3-1.4-0.3-2.1-0.7c-0.3-0.2-0.5-0.4-0.8-0.6c0.1,0.1,0.2,0.2,0.2,0.4c-0.2-1.8-0.1-3.6,0.3-5.4
		c0-1.1-0.3-2.1-1-3C439.4,291.8,438.1,290.1,437.9,290.9L437.9,290.9z"></path><path class="st0" d="M351.9,334.8c-1.1-0.3-2.2-0.6-3.4-0.9c-22.8-5.6-42.5,18.4-39.3,21.8s14.2-5.9,17.3-7.2
		c0,0-10.8,18.3-1.5,16.8c0,0,1.5,7,7.5,3.2c0,0,0.2,4.4,5.5,3c6.1-1.6,6.3-7.9,10.5-8.2c0,0,25.6,15.1,27.3,15.1
		c0,0,28.2,12.9,44-6.6c18.4-22.7,12.1-50.7,12.1-50.7l-41.6,2.2c0,0,0.5,17.4,0.2,18.5S351.9,334.8,351.9,334.8z"></path><path class="st1" d="M352.5,332.7c-3.6-1.1-7.4-1.7-11.1-1.8c-3.4,0-6.8,0.5-10,1.6c-5.9,1.9-11.4,5-16,9
		c-3.4,2.9-6.8,6.5-8.5,10.6c-0.6,1.2-0.7,2.6-0.3,4c1,2.5,4.2,2.8,6.5,2.3c3-0.7,5.8-2.4,8.3-4.1c2-1.5,4.1-2.8,6.3-4l-3.5-2.9
		c-1.3,2.3-2.5,4.7-3.5,7.1c-1.3,3-3.2,7.5-1.3,10.7c1.3,2.2,3.9,2.4,6.2,2.1l-3.1-1.5c0.4,1.6,1.2,3.1,2.4,4.2
		c2.5,2.4,6.1,1.9,8.8,0.3l-3.8-1.8c0.1,1.2,0.5,2.4,1.3,3.4c1.9,2.3,5.2,2.4,7.8,1.5c2.6-0.9,4.9-2.6,6.5-4.8
		c0.3-0.4,0.7-0.9,1-1.3l0.5-0.6c0,0,0.5-0.5,0.2-0.3c0.1-0.2,0.3-0.3,0.5-0.5s0.5-0.4,0.2-0.2c0.2-0.1,0.4-0.2,0.6-0.3
		c-0.6,0.3,0.7-0.1,0,0l-1.3-0.3c7.8,4.6,15.5,9.2,23.5,13.3c1.5,0.8,3.3,2,5.1,2l-1.3-0.3c3.6,1.6,7.4,2.7,11.2,3.4
		c7.5,1.5,15.5,1.6,22.8-1.1c4.3-1.6,8.1-4,11.3-7.3c3.7-4,6.8-8.6,9.1-13.5c4-8.4,6.2-17.6,6.4-26.9c0.2-4.8-0.1-9.7-1.1-14.5
		c-0.4-1-1.4-1.6-2.4-1.5l-36.5,1.9l-5.1,0.3c-1.3,0-2.4,0.9-2.5,2.2c0.1,4,0.2,8,0.3,12c0,2,0,4,0,6c0,0.4,0,0,0-0.2
		c-0.1,0.3,0.7-0.9,1-1.1s1.4-0.2,0.8-0.3c-0.2,0-0.4,0-0.6,0s-0.2,0-0.4,0s0.7,0.1,0.1,0c-9.3-1.1-18.5-3.2-27.7-5
		C358.4,333.9,355.4,333.3,352.5,332.7c-1.3-0.3-2.6,0.4-3.1,1.6c-0.3,1.2,0.5,2.3,1.7,2.6c0,0,0.1,0,0.1,0
		c7.8,1.6,15.7,3.2,23.5,4.6c4.3,0.8,8.6,1.7,13,2.1c1.4,0.1,3.2,0.5,4.4-0.6s0.8-3.9,0.8-5.5c0-4.9-0.2-9.7-0.3-14.6l-2.5,2.2
		l36.5-1.9l5.1-0.3l-2.4-1.5c0,0.2,0.1,0.4,0.1,0.5c0.1,0.7,0-0.4,0,0.1l0.1,1c0.3,1.9,0.5,3.8,0.6,5.7c0.4,6.2-0.2,12.4-1.5,18.4
		c-1.8,8.1-5.4,15.7-10.4,22.2c-4.1,5.4-10.1,9-16.7,10.2c-2.9,0.5-5.9,0.6-8.8,0.4c-2.5-0.2-5.1-0.6-7.6-1.1
		c-1.1-0.3-2.2-0.5-3.3-0.9l-1.3-0.4l-0.6-0.2c-0.7-0.2,0.1,0-0.2-0.1c-1-0.3-1.9-0.7-2.8-1.1l-0.4-0.1l-0.3-0.1H376
		c0.1,0.1,0.4,0,0.2,0c-0.5-0.1,0.3,0.1,0.3,0.1s-1.5-0.7-1.6-0.7c-1.9-0.9-3.6-1.9-5.5-2.9c-4.6-2.5-9.2-5.2-13.8-7.9l-4.8-2.8
		c-0.3-0.2-0.7-0.4-1-0.6c-1.3-0.5-2.7-0.4-3.8,0.3c-2.6,1.2-3.9,4-5.7,5.9c-1,1.1-2.4,1.8-3.8,2c-0.2,0-0.4,0-0.6,0
		c-0.1,0-0.5-0.1-0.3,0s-0.1,0-0.2-0.1c-0.2-0.2,0.1,0.1,0.1,0.1c-0.1-0.1-0.2-0.1-0.3-0.2c0.3,0.5-0.1-0.2-0.2-0.4
		c0.3,0.5,0-0.4-0.1-0.6c0.1,0.3,0,0.4,0,0c-0.1-1.8-2.4-2.7-3.8-1.8c-0.5,0.3-1,0.5-1.5,0.7c-0.7,0.2,0.4,0-0.3,0.1s0.4,0.1-0.2,0
		s0.4,0.2-0.2,0s0.3,0.3-0.1-0.1c-0.1-0.1-0.3-0.2-0.4-0.4c0.4,0.4,0,0-0.1-0.1s-0.6-1-0.4-0.5c-0.1-0.3-0.2-0.5-0.4-0.8
		c-0.1-0.3-0.2-0.5-0.2-0.8c-0.3-1.3-2-1.6-3.1-1.5c0.6-0.1-0.2,0-0.3,0c-0.7,0,0.1,0.1-0.2,0c-0.5-0.2,0.5,0.3,0,0s0.4,0.2,0,0
		s0.5,0.3,0,0c-0.1-0.2-0.1-0.1,0.1,0.2c0-0.1-0.1-0.2-0.1-0.2c0-0.1-0.1-0.3-0.1-0.4c0.1,0.6,0,0,0-0.2c0-0.4,0-0.8,0-1.2
		c-0.1,0.6,0-0.2,0.1-0.3c0-0.3,0.1-0.5,0.2-0.8c0.2-1,0.6-2,0.9-2.9c0.7-1.8,1.4-3.5,2.3-5.2c0.4-0.9,0.9-1.7,1.4-2.5
		c1.3-2.3-1.6-3.7-3.5-2.9c-1.6,0.9-3.2,1.8-4.7,2.9c-2.1,1.5-4.3,2.7-6.6,3.9c-0.8,0.4-1.7,0.7-2.6,0.9c0.5-0.1,0,0-0.2,0
		c-0.5,0.1,0,0,0,0c-0.5-0.2,0.3,0.1-0.1,0c-0.2,0,0.1,0.1,0.1,0.1s0.3,0.6,0.2,0.2c0.1,0.4,0,0.3,0-0.1s-0.2,0.5,0,0.1
		c0-0.1,0-0.3,0.1-0.4c0.1-0.3,0.2-0.6,0.3-0.9c0-0.1,0.1-0.3,0.2-0.4c-0.2,0.4-0.1,0.1,0.1-0.1s0.4-0.7,0.6-1
		c0.5-0.8,1-1.5,1.5-2.2c0.6-0.7,1.1-1.4,1.8-2.1c0.8-0.8,1.6-1.6,2.5-2.4c3.8-3.5,8.2-6.2,13-8c2.9-1.1,6-1.7,9.2-1.9
		c3.7,0,7.3,0.6,10.8,1.7c1.3,0.3,2.5-0.4,3-1.6C354.5,334.3,353.8,333.1,352.5,332.7C352.6,332.7,352.6,332.7,352.5,332.7z"></path><path class="st1" d="M335.3,344.9c-2.2,1.9-4.2,4-5.9,6.2c-3.2,4-5.7,8.8-6,14c-0.1,1.3,1.4,2.3,2.5,2.5c1.1,0.2,2.1-0.6,2.3-1.7
		c0-0.1,0-0.2,0-0.3c0.2-4.3,2.8-8.5,5.6-12c0.5-0.7,1.1-1.4,1.7-2c0.5-0.6,1.1-1.1,1.7-1.7s1.1-1,1.7-1.5
		C341,346.4,337.4,343.1,335.3,344.9L335.3,344.9z"></path><path class="st1" d="M343.1,350.8c-2.3,1.8-4.4,3.8-6.3,6c-3.1,3.6-6.1,8-6.5,12.9c0.8-0.2,1.6-0.5,2.3-0.9c0.5-0.3,1-0.6,1.5-1
		c0.2-0.1,0.5-0.3,0.5-0.6c0.4-4.7,3.3-9,6.3-12.4c1.2-1.4,2.5-2.7,3.9-4c0.4-0.4,0.9-0.8,1.3-1.1l0.4-0.3c-0.4,0.4-0.2,0.2-0.1,0.1
		s0.6-0.4,0.5-0.6s-0.8,0.2-0.8,0.1C345.1,349.4,344,350,343.1,350.8L343.1,350.8z"></path></g><g id="character-1"><path class="st0" d="M272.5,268.4c0,0-5.2-13-11.5-9.3s0.8,18.6,0,21.1S240,313.9,240,313.9s14.2,29.4,17.1,28.9
		s38.2-52.4,42.2-64.1S272.5,268.4,272.5,268.4z"></path><path class="st1" d="M274.6,267.9c-1.4-3.4-3.4-7.1-6.2-9.5c-2-1.7-4.6-3-7.2-2.1c-2.5,0.9-4.2,3-4.7,5.6c-1.1,5.2,1,10.7,2.1,15.6
		l0.1,0.7c-0.1-0.5,0,0,0,0.2s0.1,0.7,0.1,1.1c-0.1-0.6,0-0.4,0-0.1c0-0.1,0.3-0.5,0.1-0.4c-0.1,0.1-0.2,0.3-0.2,0.5
		c-0.5,1.1-1.2,2.2-1.9,3.2c-4.7,7.8-9.6,15.3-14.6,23.1l-4.1,6.3c-0.9,1.3-0.3,2.5,0.3,3.7s1.2,2.5,1.9,3.8
		c2.1,4.1,4.2,8.2,6.4,12.2c2,3.8,4.2,7.5,6.8,10.9c0.9,1.1,2,2.3,3.5,2.4c1,0,1.9-0.5,2.6-1.3c1.8-1.9,3.5-3.9,5-6.1
		c5.8-7.8,11.3-15.8,16.6-23.9c5.6-8.5,11.1-17,16-25.9c1.5-2.6,2.9-5.3,3.9-8.1c1.4-4.1-0.4-8-4.1-10.2s-8.2-2.9-12.4-3.4
		c-3.6-0.4-7.1-0.5-10.7-0.5c-0.6,0-1.2,0-1.8,0c-3,0.1-2.2,4.9,0.4,4.8c3.2-0.1,6.3-0.1,9.5,0.1c1.3,0.1,2.6,0.2,3.9,0.4
		c0.6,0.1,1.3,0.2,2,0.3l1,0.2l0.5,0.1c0.1,0,0.2,0,0.3,0c1.2,0.3,2.4,0.6,3.6,1c0.5,0.2,1.1,0.4,1.6,0.6c-0.5-0.2,0.2,0.1,0.3,0.2
		s0.5,0.3,0.7,0.4s0.4,0.3,0.6,0.4c-0.6-0.4,0,0,0.1,0.2s0.3,0.3,0.4,0.5c-0.4-0.5-0.1,0,0.1,0.2s-0.2-0.5,0,0.1
		c0,0.1,0.1,0.2,0.1,0.3c0.1,0.3,0-0.6,0-0.1l0.1,0.6c0,0.5,0-0.4,0-0.1c0,0.2,0,0.3-0.1,0.5s-0.2,0.9-0.1,0.4
		c0,0.2-0.1,0.3-0.2,0.5c-0.1,0.4-0.3,0.7-0.4,1.1c-0.3,0.8-0.7,1.5-1.1,2.3c-2.3,4.6-5,9.1-7.7,13.5c-6.8,11-14,22-21.5,32.6
		c-2.7,3.8-5.4,7.6-8.4,11.2c-0.4,0.5-0.9,1-1.3,1.5l-0.5,0.5c-0.1,0.1-0.2,0.1-0.2,0.2c-0.2,0.3,0.5-0.4,0.1-0.1
		c-0.2,0.1-0.4,0.1,0,0.1c0.2,0,0.5-0.1,0.6-0.1c0.6,0,0.6,0.1,0.4,0.1s0.6,0.3,0.3,0.1c-0.1,0-0.5-0.3-0.1,0s0,0-0.1-0.1
		c-0.3-0.3-0.5-0.6-0.8-0.9c-0.5-0.5,0.1,0.1-0.1-0.1l-0.4-0.5c-0.4-0.5-0.7-1-1-1.5c-0.7-1.1-1.4-2.2-2-3.3c-1.6-2.6-3-5.3-4.4-8
		c-2.2-4.2-4.4-8.4-6.4-12.6c-0.1-0.2-0.2-0.5-0.3-0.7l-0.1,2.9c5.6-8.5,11.1-17.1,16.4-25.7c1.3-2.1,2.6-4.2,3.8-6.3
		c0.8-1.4,1.5-2.6,1.4-4.3c-0.3-3-1.4-6-2.1-9c-0.1-0.5-0.3-1.6-0.4-2.4c-0.1-0.9-0.2-1.8-0.2-2.6c0-1.1,0.2-2.2,0.7-3.2
		c0.3-0.6,0.8-1,1.4-1.2c0,0,1-0.2,0.6-0.2h0.4l0.4,0c-0.2,0-0.2,0-0.1,0c0.6,0.2,1.1,0.4,1.6,0.8c0.6,0.5,1.1,1.1,1.6,1.7
		c0.1,0.1,0.4,0.5,0.1,0.1l0.4,0.6c0.2,0.4,0.5,0.7,0.7,1.1c0.4,0.7,0.8,1.3,1.1,2l0.4,0.9c0,0.1,0.1,0.2,0.1,0.3
		c0.2,0.5-0.2-0.6,0-0.1c0.1,0.2,0.2,0.4,0.3,0.6c0.5,1.1,1.5,2.2,2.8,1.9C274.5,270.3,275,269.1,274.6,267.9
		C274.6,267.9,274.6,267.9,274.6,267.9z"></path><path class="st0" d="M294.2,261.1c0,0-3.6-18.1-12-16.5c-5.5,1,1.4,16.4,1.4,16.4"></path><path class="st1" d="M296.6,260.9c-0.4-2-1-4-1.6-6c-1.1-3.3-2.6-6.8-5.1-9.3c-1.3-1.5-3.1-2.5-5-2.9c-2-0.5-4.1-0.1-5.8,1.1
		c-2.7,2.4-1.5,7-0.8,9.9c0.7,2.7,1.6,5.3,2.8,7.8c0.7,1.1,2,1.5,3.1,1.1c1-0.3,2.1-1.3,1.6-2.4c-0.8-1.8-1.5-3.7-2.1-5.7
		c-0.2-0.8-0.5-1.6-0.7-2.4c0-0.1-0.1-0.6-0.1-0.4s-0.1-0.4-0.1-0.4c-0.1-0.4-0.1-0.8-0.2-1.2c-0.1-0.7-0.2-1.5-0.2-2.2
		c0-0.1,0-0.3,0-0.4c0-0.5-0.1,0.2,0-0.1s0.1-0.6,0.2-0.9s-0.1,0.2,0,0c0.1-0.1,0.1-0.2,0.2-0.3c0.2-0.4-0.4,0.4,0,0.1
		s-0.2,0.1-0.1,0c0.4-0.2-0.2,0.1-0.2,0.1c0.5-0.2-0.1,0-0.1,0s0.3,0,0.5,0h0.3c0.4,0-0.5-0.1-0.2,0c0.2,0,0.3,0.1,0.5,0.1
		c0.5,0.1-0.4-0.2,0,0c0.2,0.1,0.3,0.1,0.5,0.2c0.3,0.1,0.4,0.2,0,0c0.3,0.2,0.6,0.4,0.9,0.6s0.2,0.2,0.4,0.3s-0.3-0.3-0.1-0.1
		l0.2,0.2c0.5,0.5,1,1.1,1.5,1.8l0.3,0.4c0.3,0.4-0.1-0.2,0.1,0.2s0.4,0.7,0.6,1.1c0.8,1.4,1.4,2.9,2,4.4c0.5,1.4,0.9,2.8,1.3,4.2
		c0.1,0.3,0.1,0.5,0.2,0.8c0,0.1,0,0.2,0.1,0.3s-0.1-0.5,0-0.2c0,0.2,0.1,0.3,0.1,0.5c0.3,1.2,1.4,1.9,2.6,1.8
		C295.2,262.9,296.9,262.2,296.6,260.9L296.6,260.9z"></path><path class="st0" d="M190.6,333c0,0,16.6,50.4,45.5,43s48.4-63.1,48.4-63.1l-28.4-28.8c0,0-15.1,36.7-23,30.8s-27.4-56.7-27.4-56.7
		L190.6,333z"></path><path class="st1" d="M188.3,333.8c1.1,3.1,2.3,6.2,3.7,9.2c2.9,6.6,6.5,12.8,10.7,18.5c4.5,6,10.1,11.7,17.1,14.4
		c7.9,3.1,16.2,1.1,23.7-2.5c7.7-3.7,13.9-9.8,19.2-16.4c5.4-6.9,10.1-14.4,14.1-22.2c3.1-5.9,5.8-11.9,8.3-18
		c0.6-1.5,1.2-2.9,1.7-4.4c0.3-0.8-0.3-1-0.9-1.5l-26.6-27l-0.7-0.7c-0.3-0.3-2.1,0.5-2.5,0.6c-0.5,0.2-2,0.5-2.3,1.1
		c-2.1,5.2-4.5,10.2-7.2,15.1c-1.9,3.8-4.2,7.4-6.8,10.8c-1,1.3-2.1,2.6-3.4,3.7c-0.3,0.2-0.5,0.4-0.8,0.6l-0.3,0.2
		c-0.2,0.1-0.2,0.1-0.2,0.1s2.1-1,2.5-0.9c-0.1,0-0.1,0-0.2,0c-0.3,0-0.5,0-0.8-0.1c-2.1-0.5-3.7-3.4-4.8-5
		c-2.1-3.3-3.9-6.7-5.6-10.2c-4.2-8.5-8-17.1-11.6-25.9c-1.4-3.5-2.9-7-4.3-10.5c-0.5-1.2-0.9-2.3-1.4-3.5c-0.2-0.7-0.4-1.3-0.7-1.9
		c0-0.1-0.1-0.2-0.1-0.2c-0.1-0.3-4.6,1.1-4.7,1.7l-5.1,25.4l-8.1,40.2L188.3,333.8c0.8-0.1,1.6-0.3,2.4-0.5
		c0.4-0.1,2.2-0.5,2.3-1.1l5.1-25.4l8.1-40.2l1.9-9.2l-4.7,1.6c1.8,4.8,3.8,9.5,5.7,14.3c3.7,9,7.6,18.1,11.9,26.9
		c1.8,3.7,3.8,7.4,5.9,10.9c1.1,1.8,2.7,4.7,5,5.3c1.9,0.5,4.2-0.6,5.9-1.3c1.6-0.7,3-1.6,4.1-2.8c2.7-2.9,5.1-6.2,7-9.7
		c2.2-3.8,4.2-7.7,6.1-11.6c1.1-2.4,2.3-4.7,3.2-7.2c0-0.1,0.1-0.2,0.1-0.4l-4.7,1.7l24.5,25l2.4,2.5c0.3,0.3,1.1,0.8,1.3,1.3
		s-0.3,1.2-0.5,1.7c-1.8,4.8-3.9,9.6-6.1,14.3c-3.5,7.5-7.5,14.6-12,21.5c-4.8,7.1-10.2,14-17.1,19.2c-1.5,1.2-3.1,2.3-4.8,3.2
		c-0.7,0.4-1.5,0.8-2.3,1.1l-0.8,0.3c-0.7,0.3,0.5-0.1-0.3,0.1l-0.3,0.1l-0.8,0.2c-0.4,0.1-0.8,0.2-1.2,0.2c-1,0.2-2,0.3-3,0.3
		c-1.8,0-3.5-0.2-5.2-0.5c-7.1-1.6-13.1-6.6-17.7-12c-7.5-8.8-13-19.6-16.9-30.5l-0.2-0.6C192.9,331.8,188.1,333.4,188.3,333.8z"></path><path class="st0" d="M111.8,347.8c0,0,16.6-99.3,65.6-109.4s28,126,28,126S125.1,358.6,111.8,347.8z"></path><path class="st1" d="M113.8,349.2c0.7-4.3,1.7-8.6,2.7-12.8c2.3-10.1,5.2-20,8.7-29.8c4-12,9.3-23.5,15.8-34.4
		c6.1-10.1,13.8-19.8,23.9-26.1c4.6-3,9.7-5,15.1-6c1.8-0.3,3.7-0.4,5.5-0.2c0.4,0,0.9,0.1,1.3,0.2c0.2,0-0.2,0,0.2,0.1l0.8,0.2
		c0.4,0.1,0.8,0.2,1.2,0.3l0.6,0.2l0.3,0.1c0.4,0.2-0.4-0.2,0,0s0.7,0.3,1.1,0.5l0.5,0.3c0.4,0.2,0.5,0.3,0.2,0.1
		c0.4,0.2,0.7,0.4,1,0.7c0.2,0.1,0.3,0.2,0.5,0.4s0.6,0.5,0.1,0.1c0.3,0.3,0.6,0.5,0.9,0.8l0.5,0.4c0.1,0.1,0.8,0.8,0.2,0.2
		c0.6,0.6,1.2,1.3,1.7,2l0.4,0.6c-0.3-0.4-0.1-0.1,0.1,0.1c0.3,0.4,0.6,0.9,0.9,1.3c0.5,0.8,1,1.7,1.5,2.6l0.2,0.4l0,0
		c0.1,0.2,0.2,0.4,0.3,0.7c0.2,0.5,0.4,1,0.7,1.5c0.4,1,0.8,2,1.2,3c3.4,9.2,4.7,19.4,5.4,29.4c0.8,11.1,0.9,22.1,0.3,33.2
		c-0.4,9.5-1.1,18.9-2.1,28.3c-0.5,5-1.1,10.1-1.9,15.1c0,0.2-0.1,0.5-0.1,0.7l0.8-0.5c-9.2-0.6-18.3-1.5-27.5-2.5
		c-16.1-1.8-32.4-3.7-48.2-7.4c-3.5-0.8-7-1.8-10.4-3l-1-0.4c-0.1,0-0.6-0.2-0.1,0l-0.6-0.2c-0.6-0.2-1.2-0.5-1.8-0.8l-0.9-0.4
		c-0.2-0.1-1-0.6-0.3-0.1c-0.2-0.1-0.5-0.3-0.7-0.5s-1-0.7-0.2-0.1c-0.6-0.5-1.9-1.5-2.7-0.8s0.5,2.2,1,2.6
		c4.4,3.5,10.2,5.2,15.5,6.6c7.7,1.9,15.5,3.5,23.3,4.6c15.4,2.4,31,4.1,46.5,5.5c3.4,0.3,6.8,0.6,10.2,0.8c0.4,0,0.7-0.2,0.8-0.5
		c0.6-3.6,1-7.2,1.4-10.9c1-8.8,1.8-17.7,2.4-26.6c0.7-11.2,0.9-22.4,0.5-33.7c-0.5-10.7-1.5-21.5-4.4-31.8c-2.3-8.4-6-16.9-13-22.3
		c-3-2.4-6.7-3.9-10.5-4.4c-4.6-0.6-9.4,0.5-13.7,2.1c-11.1,4.1-20,12.6-26.9,21.9c-7.7,10.4-13.5,22.1-18.3,34
		c-4.2,10.7-7.8,21.7-10.6,32.9c-1.6,6.1-3,12.3-4.2,18.6c0,0.3-0.1,0.6-0.2,0.9C109.5,348.1,113.5,350.9,113.8,349.2z"></path><polygon class="st3" points="177.6,410.5 242.7,361.3 193.5,330.6 130.8,381.3 	"></polygon><path class="st3" d="M179.4,410.6l22.1-16.7l35-26.5l8-6.1c0.2-0.1,0.9-0.7,0.4-1L228.2,350l-26.4-16.5l-6.1-3.8
		c-1.2-0.8-3.5,0.2-4.5,1L170,347.9l-33.8,27.3l-7.7,6.2c-0.2,0.1-0.4,0.5-0.1,0.7l15.8,9.8l25.1,15.7l5.8,3.6
		c0.8,0.5,2.3,0.1,3.1-0.2c0.3-0.1,2.2-1,1.4-1.5l-15.8-9.8l-25.1-15.7l-5.8-3.6l-0.1,0.7l21.2-17.1l33.8-27.3l7.7-6.2l-4.5,1
		l16.7,10.4l26.4,16.5l6.1,3.8l0.4-1l-22.1,16.7l-35,26.5l-8,6.1c-0.7,0.5-0.6,1,0.3,1.1C177.2,411.6,178.4,411.3,179.4,410.6z"></path><path class="st0" d="M161.9,355.2c0,0,12,2.7,12.7,7.5s-6.1,7.8-6.1,7.8s1.7,7.6-4.3,8.3c0,0,1,4.5-6.3,6.4s-21.3,1.2-41.5-9.8
		c0,0,1.8-22.1,20.3-29.3c0,0,15.6-12.2,31.3,1.7"></path><path class="st1" d="M162,357l0.4,0.1c0.6,0.1-0.6-0.2-0.1,0l0.4,0.1c1,0.3,2,0.6,2.9,0.9c0.6,0.2,1.2,0.5,1.9,0.7l0.7,0.3l0.5,0.2
		c-0.2-0.1-0.2-0.1,0.1,0.1c1,0.5,1.9,1.1,2.8,1.8c0.3,0.2,0.5,0.5,0.7,0.9c-0.2-0.3,0.1,0.3,0.1,0.4c0,0.2,0.1,0.5,0.1,0.7
		c-0.1,1.1-0.6,2.2-1.5,3c-1.1,1.2-2.5,2.1-4,2.8c-0.6,0.3-0.9,1.1-0.6,1.7c0.1,0.4-0.1-0.6,0-0.1c0,0.2,0.1,0.5,0.1,0.7
		c0.1,0.8,0.1,1.6,0,2.4c-0.2,1.4-1,3.1-2.7,3.3c-1.1,0.2-1.9,0.7-1.7,2c-0.1-0.5,0-0.4,0,0c0,0.1,0,0.3,0,0.4
		c0,0.4,0.1-0.2-0.1,0.3c-0.2,1-0.8,1.8-1.6,2.4c-1.3,0.9-2.9,1.5-4.5,1.8l-0.7,0.1c-0.1,0-0.3,0.1-0.4,0.1
		c-0.6,0.1-1.2,0.1-1.8,0.2c-2.8,0.2-5.6,0.1-8.4-0.4c-3.8-0.6-7.4-1.5-11-2.7c-5.4-1.9-10.7-4.2-15.8-7l1.2,1.8
		c0-0.5,0.1-1.1,0.2-1.6c0,0-0.1,0.4,0,0l0.1-0.4c0.1-0.4,0.1-0.7,0.2-1.1c0.2-0.8,0.3-1.6,0.6-2.4c1.1-4.3,2.9-8.3,5.4-12
		c1.5-2.3,3.4-4.3,5.4-6.1c2.3-1.8,4.8-3.2,7.4-4.4c0.8-0.4,1.6-1,2.4-1.5c1.7-1,3.6-1.8,5.5-2.4c3-0.9,6.1-1.1,9.2-0.7
		c4.1,0.8,7.9,2.7,11,5.5c0.9,0.9,2.3,1.1,3.4,0.6c0.7-0.5,0.9-1.5,0.4-2.2c-0.1-0.2-0.2-0.3-0.4-0.4c-6-5.3-13.8-8.4-21.9-7.3
		c-4.5,0.6-8.7,2.2-12.4,4.7l-0.4,0.2l-0.1,0c0.1-0.1,0.5-0.2-0.1,0L134,345c-1.5,0.6-2.9,1.4-4.3,2.3c-2.5,1.7-4.8,3.7-6.8,6
		c-3.2,4-5.7,8.6-7.2,13.5c-0.9,2.7-1.5,5.5-1.8,8.3c0.1,0.8,0.5,1.4,1.2,1.8c9,4.9,18.7,9,28.9,10.5c3.3,0.5,6.6,0.7,9.9,0.5
		c3.2-0.2,6.8-0.8,9.4-2.7c2.1-1.5,3.6-3.8,3.1-6.4l-1.7,2c3.1-0.4,5.4-2.1,6.1-5.2c0.3-1.7,0.3-3.4-0.1-5l-0.6,1.7
		c3.4-1.5,7.4-4.9,6.8-9.1c-0.7-4.7-6.8-7.1-10.7-8.4c-1.5-0.5-3-0.9-4.5-1.3c-1-0.2-2.4,0.3-2.4,1.5S160.9,356.8,162,357L162,357z"></path><path class="st1" d="M146.9,350.8c4.7,2.3,9.5,4.5,14.4,6.5c1.2,0.5,2.6-0.1,3.1-1.4c0.3-1.3-0.5-2.5-1.7-2.9
		c-1.5-0.6-3-1.2-4.5-1.9l-1.1-0.5l-0.6-0.2c-0.6-0.3,0.5,0.2-0.1-0.1l-2.1-1c-1.6-0.7-3.1-1.5-4.6-2.2c-1.1-0.5-2.7-0.6-3.4,0.5
		C145.4,348.7,145.8,350.1,146.9,350.8C146.8,350.7,146.9,350.8,146.9,350.8L146.9,350.8z"></path><path class="st1" d="M166.9,368.7c-1.6,0.4-3.3,0.5-4.9,0.5c-4,0-7.9-0.7-11.6-2.2c-0.3-0.1-0.1,0.4-0.1,0.4
		c0.2,0.5,0.5,0.9,0.9,1.2c0.6,0.9,1.4,1.6,2.3,2.1c3.7,1.5,7.7,2.3,11.8,2.3c1.7,0,3.4-0.2,5-0.5c0.3-0.1-1.2-2-1.3-2.2
		C168.5,369.9,167.5,368.6,166.9,368.7L166.9,368.7z"></path><path class="st1" d="M162.6,377c-1.9,0.2-3.8,0.3-5.6,0.3c-3.2,0-6.6-0.2-9.5-1.5c-1-0.5-0.1,1,0,1.3c0.7,0.9,1.6,1.7,2.6,2.2
		c3,1.5,6.6,1.7,9.9,1.7c2,0,3.9-0.1,5.8-0.3c0.8-0.1-0.5-1.6-0.7-1.8c-0.4-0.5-0.9-0.9-1.4-1.3C163.4,377.3,163,377,162.6,377
		L162.6,377z"></path><path class="st0" d="M145.1,298.3l-42.9,24.1l40.1,19.7l-25.9,33.4c0,0-77.6-28.6-74.6-62.3c3.7-42.4,132.3-73.5,132.3-73.5"></path><path class="st1" d="M144,297l-14.5,8.1l-23.1,13l-5.3,3c-0.8,0.5-2.1,2-0.7,2.7l13.6,6.6l21.6,10.6l4.9,2.4l-0.2-2l-22.7,29.2
		l-3.2,4.1l3.4-1.1l-0.9-0.3l-1.1-0.4l-0.7-0.3c-0.1,0-0.6-0.2,0,0l-0.4-0.1c-3-1.2-6-2.5-8.9-3.8c-9.2-4-18.1-8.6-26.7-13.8
		c-9.3-5.6-18.4-12-25.6-20.1c-5.7-6.5-10.4-14.7-9.1-23.5c0.2-1.6,0.6-3.1,1.2-4.6c0.6-1.7,1.4-3.3,2.4-4.8c0.2-0.4,0,0,0.2-0.2
		s0.2-0.4,0.4-0.6c0.3-0.4,0.6-0.8,0.9-1.2c0.6-0.8,1.2-1.6,1.8-2.3s1.3-1.5,2-2.3s1.4-1.5,2-2c3.3-3.2,6.9-6.1,10.6-8.7
		c4.1-2.8,8.3-5.4,12.6-7.9c9.5-5.2,19.3-9.9,29.4-13.9c9.8-4,19.8-7.6,29.9-10.9c8-2.7,16.1-5.1,24.2-7.4c4.1-1.1,8.2-2.3,12.3-3.3
		l0.6-0.1c0.9-0.2,2.2-1.2,1.9-2.3s-2-1-2.9-0.8c-3,0.7-5.9,1.5-8.8,2.3c-7.5,2-14.9,4.2-22.3,6.6c-9.9,3.1-19.8,6.6-29.5,10.3
		c-10.6,4.1-21,8.7-31.2,13.9c-9.1,4.7-18,10-25.9,16.6c-6.2,5.2-12.3,11.6-15.1,19.4c-3,8.4-0.9,16.9,3.8,24.3
		c5.9,9,14.7,15.9,23.5,21.9c9,6,18.4,11.2,28.2,15.8c5.9,2.8,11.8,5.4,17.9,7.7l0.8,0.3c1.2,0.3,2.5-0.1,3.4-1.1l22.6-29.2l3.2-4.1
		c0.5-0.5,0.5-1.3,0-1.8c-0.1-0.1-0.2-0.1-0.2-0.2l-13.6-6.6l-21.6-10.6l-4.9-2.5l-0.7,2.7l14.5-8.1l23.1-13l5.3-3
		c0.8-0.5,1.8-1.5,1-2.5S144.8,296.5,144,297L144,297z"></path><path class="st1" d="M171.6,242.6c1.8,11.3,1.2,23,0,34.4c-1.4,13.8-4,27.5-7.9,40.9c-2.1,7.3-4.6,14.5-7.6,21.5
		c-1.1,2.6,3.3,4.9,4.5,2.1c5.4-13,9.5-26.5,12.2-40.3c2.8-13.2,4.3-26.7,4.6-40.3c0.2-6.2-0.2-12.5-1.1-18.6
		C175.9,239.5,171.1,239.5,171.6,242.6L171.6,242.6z"></path><path class="st0" d="M218.3,185c0,0,7.6,12.4,17.8,13.8s30.5,1.1,31,11.6s-13.7,11.8-22.1,8.7c0,0-2.2,27.1-19.1,31.7
		s-23.5-1-26.5,9.7c0,0-20.8-8.6-21.2-10.6c-0.6-3.2-0.9-38.8,25.5-47.4C203.6,202.3,218.5,198.4,218.3,185z"></path><path class="st1" d="M216.1,186.2c2.3,3.7,5.2,7,8.6,9.7c2.7,2.2,5.9,3.8,9.3,4.6c2.9,0.5,5.8,0.8,8.6,1c5.8,0.6,12.2,1,17.5,3.6
		c2,0.8,3.6,2.5,4.3,4.5c0.6,2.3,0,4.7-1.5,6.4c-0.3,0.3,0.2-0.2-0.1,0.1l-0.5,0.4c-0.1,0.1-0.3,0.2-0.4,0.3c0.3-0.2,0,0-0.2,0.1
		c-0.3,0.2-0.6,0.4-1,0.5c0,0-0.5,0.2-0.1,0c-0.2,0.1-0.4,0.2-0.6,0.2c-1.4,0.5-2.9,0.8-4.4,0.9c-3.2,0.2-6.4-0.2-9.4-1.3
		c-1.3-0.5-3.7,0.5-3.8,2c-0.5,6.9-2.5,13.7-5.8,19.8c-1.2,2.2-2.6,4.1-4.4,5.9c-1.6,1.6-3.6,2.9-5.8,3.6c-6,2-12.2,2-18.4,2.7
		c-2.6,0.1-5,1-7.1,2.4c-2.1,1.8-3.5,4.2-4.1,6.9l3.8-2c-6-2.4-11.9-5.1-17.7-8.1c-1-0.5-2-1.1-2.9-1.9c-0.1-0.1,0.2,0.4,0.1,0.1
		s0.1,0.3,0.1,0.2s0-0.2-0.1-0.3c0-0.3-0.1-0.6-0.1-0.9c-0.1-1-0.1-1.9,0-2.9c0-1.6,0.1-2.3,0.2-3.8c0.5-7.7,2.6-15.2,6.2-22.1
		c3.6-7.1,9.9-12.5,17.5-15c7.3-2.3,14.4-7.8,16-15.6c0.3-1.3,0.4-2.7,0.4-4.1c0-1.2-1.7-1.3-2.5-1c-1.2,0.3-2,1.3-2.1,2.5
		c0,2.4-0.5,4.7-1.7,6.8c-0.9,1.7-2.2,3.1-3.7,4.3c-0.4,0.3-0.8,0.6-1.2,0.9l-0.3,0.2l0.1-0.1l-0.6,0.4c-0.7,0.4-1.4,0.8-2.1,1.1
		l-1,0.5c0.7-0.3-0.1,0.1-0.4,0.1l-1.2,0.4c-8.6,2.8-15.9,8.7-20.5,16.5c-4,7.1-6.5,15.1-7.3,23.2c-0.3,2.7-0.5,5.5-0.4,8.2
		c0,0.6,0,1.3,0.1,1.9c0.3,1,1,1.8,2,2.3c3.3,2,6.8,3.8,10.4,5.4c3,1.3,6,2.6,9.1,4l0.6,0.2c1.6,0.5,3.3-0.4,3.8-2
		c0.3-1.1,0.7-2.1,1.2-3c0.2-0.4-0.1,0.1,0.1-0.2s0.3-0.3,0.4-0.5c0.4-0.4-0.3,0.2,0.2-0.1c0.1-0.1,0.6-0.5,0.3-0.3s0.2-0.1,0.3-0.1
		c0.6-0.4-0.2,0,0.1-0.1s0.9-0.3,1.4-0.4c-0.5,0.1,0,0,0.2,0l0.7-0.1c0.6-0.1,1.1-0.1,1.7-0.2c6.4-0.6,13.1-0.8,19.2-3
		c10.5-3.9,15.8-14.8,18.3-25c0.7-2.7,1.2-5.4,1.4-8.2l-3.8,2c6.1,2.2,13.6,2.4,19.5-0.6c2.9-1.4,5.1-3.9,6.1-7
		c0.8-2.7,0.4-5.7-1.2-8c-3.7-4.9-11.1-6-16.7-6.8c-3.3-0.4-6.6-0.7-9.9-1s-6.2-0.6-9.1-2.1c-4.8-2.7-8.9-6.6-11.7-11.4
		C219.3,181.9,214.9,184.3,216.1,186.2z"></path><path class="st1" d="M172.5,232c0,0-13.9,4.5-16.6-3s6.5-6.2,6.5-6.2s-11.3-15.1,3-18.7c0,0-12.6-11.2-3.7-22.8s28-5.4,28-5.4
		s-1.4-17,13.4-15.6s11.7,11.8,11.7,11.8s9.4,0.7,10,6.6s-6.4,8.5-6.4,8.5s-1.8,16.9-14.7,15.1L192.4,224c0,0,4.8,7.4,0.4,15.6
		S172.4,242.9,172.5,232z"></path><path class="st1" d="M174,231.1C173.9,231.1,174.5,231,174,231.1l-0.7,0.2c-0.8,0.2-1.6,0.4-2.4,0.5c-2.3,0.5-4.6,0.5-6.9,0.3
		c-2.4-0.2-4.5-1.5-5.6-3.6c-0.6-1.1-0.8-2.4-0.7-3.6c0.1-0.5,0.2-0.9,0.5-1.3c0.1-0.2,0.3-0.3,0.4-0.4s0.2-0.1,0.2-0.1
		s-2.4,1.1-2.4,1.1c1.3-0.2,2.6-0.3,3.8-0.2c0.6,0.1,4.6-2,4.4-2.2c-1.6-2.1-2.8-4.5-3.6-7c-0.7-1.8-0.8-3.8-0.5-5.8
		c0.2-1,0.7-1.9,1.3-2.7c0.4-0.4,0.7-0.8,1.1-1.1c0.7-0.7-0.5,0.5-0.6,0.2c0,0,1-0.3,1-0.3c1.4-0.6,2.8-1.3,4.2-2.1
		c-4.8-4.3-8.2-11.4-6.3-17.8c0.8-2.6,2.3-4.9,4.2-6.8c0.7-0.7,1.5-1.3,2.4-1.8c0.8-0.5-0.8,0.2,0.1,0c0.4-0.1,0.9-0.3,1.3-0.4
		c3.8-0.9,7.7-1.1,11.6-0.6c2.2,0.2,4.4,0.7,6.5,1.3c0.6,0.2,1.8-0.6,2.4-0.8c0.3-0.1,2.2-0.9,2.1-1.3c-0.3-4.2,0.6-9.1,3.5-12.3
		c0.5-0.5,1-0.9,1.5-1.4c0.1,0.2-1.4,0.4-1.1,0.5s1.4-0.3,1.8-0.3c2.5-0.2,5,0,7.4,0.7c3.2,0.9,6.3,2.9,7.3,6.2
		c0.5,1.6,0.5,3.3,0.1,4.9h0.1c3.2,0.3,7.4,1.4,9.2,4.4c1.2,2.3,0.9,5.2-0.8,7.1c-0.7,0.8-1.4,1.5-2.3,2.1l-0.3,0.2l0.2-0.1
		c0.2-0.1,0.7-0.3,0.9-0.4c-0.8,0.3-1.5,0.7-2.3,1.1c-0.2,0.1-1,0.4-1,0.7c-0.3,2.5-1,4.9-2,7.2c-0.8,2-2.1,3.7-3.6,5.2
		c-0.4,0.3-0.8,0.6-1.1,0.9c0.4-0.3,0.9-0.5,1.3-0.6c-0.3,0.1-0.5,0.1-0.8,0.2c-1.3,0.3-2.7,0.3-4.1,0.1c-0.8,0.1-1.6,0.4-2.3,0.9
		c-0.5,0.2-1.8,0.7-2.1,1.2l-10.3,19.9c-0.2,0.5-1,1.4-0.9,2s0.7,1.4,0.9,1.9c0.6,1.4,0.9,2.8,1.1,4.3c0.4,3.5-0.2,7.8-2.6,10.5
		c-0.4,0.3-0.7,0.6-1,1c0-0.1,1.4-0.6,1.4-0.7c-0.3,0-0.6,0.1-0.9,0.2c-1.2,0.2-2.3,0.2-3.5,0c-5.8-0.8-10.9-5.5-10.9-11.5
		c-0.8,0.2-1.6,0.5-2.4,0.8c-0.4,0.2-2.1,0.8-2.1,1.3c0,5.7,4.6,10.1,9.9,11.3c2.6,0.6,5.3,0.4,7.7-0.6c3-1.2,5.9-2.7,7.4-5.6
		c1.8-3.7,2.1-7.9,0.9-11.7c-0.3-1.1-0.7-2.1-1.3-3c-0.3-0.4-0.3-0.2-0.2-0.6c0.6-1.4,1.3-2.7,2.1-4l3.5-6.7l5.6-10.7l-4.4,2.1
		c2.6,0.3,5.2-0.1,7.6-1.2c2.4-0.9,4.7-2.3,6.5-4.2c2.7-3.4,4.5-7.5,5-11.9l-3.4,1.8c2.7-1,5.2-2.4,7.3-4.4c2.3-2.3,3.4-6.1,1.2-8.9
		c-1.7-2.1-4.7-3-7.3-3.5c-0.4-0.1-0.8-0.1-1.2-0.2c0,0-0.3,0-0.3,0s0.1,0.2,0,0s0.2-0.8,0.2-1c0.6-5-2.9-8.6-7.5-10
		c-3.6-1.2-7.5-1.2-11.1,0c-3.2,1.1-6.6,2.8-8.6,5.8c-2.1,3.4-3,7.3-2.6,11.2l4.5-2.1c-6.1-2-12.6-2.3-18.8-0.7
		c-5,1.4-10.4,4-13.6,8.2c-3.4,4.2-4.1,10-1.9,14.9c1.3,3,3.2,5.7,5.6,7.9l4.1-2.1c-3.2,0.8-6.1,2.2-8.7,4.1
		c-1.4,1.2-2.3,2.8-2.6,4.6c-0.5,3.4,1.1,6.9,2.7,9.8c0.4,0.8,0.9,1.5,1.4,2.2l4.4-2.2c-1.4-0.2-2.9-0.1-4.3,0.2
		c-1.9,0.5-3.7,1.3-5.4,2.5c-0.9,0.6-1.5,1.4-1.7,2.5c-0.4,2.9,1.3,5.7,4,6.8c2.6,0.9,5.4,1.1,8.1,0.6c1.9-0.3,3.8-0.7,5.7-1.3
		c1.1-0.4,2.2-0.9,3.2-1.5C174.8,231,174.9,230.8,174,231.1z"></path><path class="st0" d="M206,205.4c0,0-2.6-11.4-10.7-8.6s-9.8,28.7,4.8,27.1"></path><path class="st1" d="M208.4,204.9c-0.6-2.8-2-5.4-4-7.4c-3.5-3.2-9.8-2.4-13.2,0.7c-2.6,2.4-3.7,6.1-4.2,9.5
		c-0.7,3.9-0.2,8,1.3,11.6c2,4.3,6.1,6.2,10.7,5.7c1-0.1,2.6-0.3,3.2-1.1s-0.5-0.9-1.1-0.9c-7.4,0.7-9.9-8-9.6-14.1
		c0.1-3.3,1-6.6,2.7-9.4c0.3-0.5,0.7-0.9,1.1-1.3c0.1-0.1,0.7-0.6,0.5-0.4c0.1-0.1,0.2-0.2,0.4-0.2c-0.6,0.4,0.7-0.2-0.2,0.1
		c0,0,0.6-0.1,0.2-0.1c0.3,0,0.7,0,1,0.1c0.9,0.2,1.7,0.7,2.4,1.3c2,2,3.4,4.5,4,7.3C203.8,207.2,208.7,206,208.4,204.9L208.4,204.9
		z"></path><path class="st1" d="M226.7,222.4c0.3,1.4,0.8,2.7,1.5,4c0.6,1.2,1.4,2.3,2.3,3.2c1.4,1.3,3,2.4,4.8,3.1c2.5,1.3,5.2,1.9,8,1.8
		c0.3,0-0.1-0.3-0.1-0.3c-0.4-0.3-0.9-0.5-1.3-0.7c-0.6-0.3-1.2-0.5-1.8-0.7c-0.4-0.2-0.7-0.3-1.1-0.3c-0.8,0.1-1.6,0-2.4-0.1
		l-0.5-0.1l-0.3-0.1c0.3,0.1,0.1,0,0,0c-0.3-0.1,0.1,0,0.1,0c-0.4-0.1,0.2,0.1,0.2,0.1c-0.4-0.1,0.3,0.1,0.3,0.1s1,0.5,0.6,0.3
		s0.1,0.1,0.1,0.1c-0.1-0.1-0.1-0.1-0.2-0.1c0.3,0.2-0.1-0.1-0.2-0.1c-0.3-0.2-0.5-0.3-0.7-0.5c-0.5-0.4-0.9-0.8-1.3-1.3
		c-1.3-1.6-2.2-3.4-2.8-5.3c-0.1-0.4-0.2-0.8-0.3-1.2c0-0.2-0.5-0.4-0.6-0.5c-0.5-0.3-1-0.5-1.6-0.8c-0.5-0.2-1.1-0.4-1.7-0.6
		C227.4,222.5,226.7,222.3,226.7,222.4L226.7,222.4z"></path><path class="st1" d="M224,202.5c1,0.2,1.6,1.3,1.4,2.3c0,0.1-0.1,0.2-0.1,0.3c-0.8,1.9-3.2,1-3-0.9c-0.1-0.9,0.6-1.6,1.5-1.7
		C223.9,202.5,223.9,202.5,224,202.5z"></path><path class="st1" d="M175.1,251.2c2,6.1,4.9,11.8,8.5,17.1c0.8,1.2,1.7,3,3.1,3.5c0.8,0.3,1.3-0.2,1.9-0.7l2.1-1.6l8-6.2
		c0.9-0.7-2-4.8-2.8-4.1l-6.7,5.2l-3.2,2.5c-0.3,0.2-0.5,0.4-0.8,0.6c-0.5,0.2-0.3,0.6,0.5,1.1l-0.2-0.3c-0.4-0.5-0.8-1.1-1.1-1.7
		c-2.7-4.1-4.8-8.5-6.4-13.2c-0.4-1.1-1.1-2.2-2-2.9C175.3,250,174.8,250.2,175.1,251.2L175.1,251.2z"></path><path class="st1" d="M191.8,282.6c0.7,10.9,0.3,21.9-1.1,32.8c-0.1,0.7,4.7,1.8,4.7,1.7c1.5-10.8,1.9-21.8,1.1-32.8
		c0-0.5-1.9-1-2.3-1.1C193.5,282.9,192.6,282.7,191.8,282.6L191.8,282.6z"></path><path class="st3" d="M197.8,209.4c-10.5,10.2-14.4,25.3-10.1,39.3c2.1,7.1,6.2,13.4,11.8,18.1c5.8,4.8,13.6,6.4,20.8,4.1
		c7.3-2.5,12.7-8.7,14.2-16.2c0.6-2.7-3.8-4.4-4.4-1.3c-2,9.4-11.3,15.5-20.8,13.4c-2.5-0.5-4.8-1.6-6.8-3.1
		c-9.9-7.5-13.9-21.5-11.2-33.3c1.6-6.8,5.1-12.9,10.2-17.6c0.9-0.9,0.3-2.6-0.5-3.4C200.1,208.6,198.7,208.6,197.8,209.4
		C197.8,209.4,197.8,209.5,197.8,209.4L197.8,209.4z"></path><path class="st3" d="M211.9,271.5c-1.3,14.4,5.6,28.6,17.3,36.9c6.5,4.7,14.8,7.5,22.8,6.7c8-0.8,14.5-5.9,18.4-12.9
		c4.8-8.8,4.7-19,4.6-28.7c0-1.2-1.8-1.6-2.7-1.5c-1.2,0.1-2.2,1-2.2,2.2c0.1,7.9,0.2,16.3-2.8,23.7c-2.4,6-6.9,11.6-13.4,13.1
		c-6.9,1.6-14.2-0.9-20-4.7c-5.3-3.5-9.6-8.3-12.6-13.9c-3.4-6.3-5-13.4-4.4-20.6C217,269.1,212.1,269.1,211.9,271.5L211.9,271.5z"></path><ellipse class="st3" cx="274.6" cy="263.4" rx="10.7" ry="11"></ellipse><path class="st3" d="M283.1,262.3c0,4.1-2.4,7.8-6.1,9.5c-1.7,0.8-3.7,1-5.6,0.6c-0.6-0.2-1.2-0.4-1.8-0.7
		c-0.6-0.4-1.2-0.9-1.6-1.4c-5.3-6.4,0.5-17.1,8.7-16.2c0.9,0.1,1.8,0.4,2.6,0.8c0.2,0.1,0.5,0.3,0.7,0.5c0.4,0.3,0.7,0.6,1,1
		C282.4,258.1,283.1,260.2,283.1,262.3c0,1.1,1.2,2,2.1,2.4c0.5,0.2,2.3,0.8,2.3-0.3c-0.2-5.6-3.6-10.5-8.8-12.6
		c-4.9-2.1-10.6-1.3-14.2,2.8c-3.3,4-3.8,9.7-1.1,14.2c2.8,4.7,8.6,7.9,14.1,7.1c5.7-0.9,9.9-5.8,10-11.5c0-1.1-1.2-2-2.1-2.4
		C284.9,261.8,283.1,261.2,283.1,262.3z"></path><path class="st0" d="M274.5,257.2c-2.4-1.1-5.3-0.4-7,1.6c-1.3,1.7-1.4,4.1-0.2,5.9c1.1,1.6,2.7,2.9,4.6,3.6c0.5,0.3,1,0.5,1.6,0.7
		c1,0.3,2.1,0.3,3.1-0.1c1.2-0.5,2.2-1.4,2.9-2.5c0.8-1,1.3-2.1,1.4-3.3c0.1-1.2-0.2-2.3-1-3.2c-0.9-0.8-2.2-0.9-3.3-0.2
		c-0.5,0.2-1,0.6-1.2,1.1c-0.2,0.4-0.2,0.9,0.1,1.3c0.1,0.1,0.2,0.2,0.3,0.4l0.1,0.2c0,0-0.1-0.3,0-0.1s0.1,0.3,0.1,0.4
		s0,0.6,0.1,0.2c0,0.3,0,0.6-0.1,0.9v0.2c0,0,0.1-0.2,0-0.1s-0.2,0.4-0.3,0.6c-0.1,0.2-0.2,0.3-0.3,0.5c-0.2,0.3,0.2-0.2-0.1,0.1
		s-0.5,0.6-0.7,0.9l-0.2,0.2c0,0.1-0.2,0.2,0,0c0.1-0.1,0.3-0.2,0.4-0.3l0.7-0.1c0.3-0.1,0.6-0.2,0.9-0.1c-0.2,0-0.3-0.1-0.5-0.2
		c0,0,0.3,0.1,0.1,0l-0.4-0.2c-0.6-0.3-1.3-0.6-1.9-1c-0.3-0.2-0.6-0.4-0.8-0.6l-0.2-0.2c0,0,0.2,0.2,0.1,0s-0.3-0.3-0.4-0.4
		c-0.2-0.2-0.4-0.5-0.6-0.8c-0.1-0.1-0.2-0.4-0.1-0.1c-0.1-0.2-0.2-0.4-0.2-0.5s-0.1-0.3-0.1-0.5s-0.1-0.5,0-0.3s0-0.3,0-0.3
		c0-0.2,0-0.4,0.1-0.6c0,0-0.1,0.3,0,0.1l0.1-0.2c0-0.1,0.1-0.1,0.1-0.2c0.2-0.3-0.2,0.2,0,0.1s0.5-0.5,0.2-0.2s0.1-0.1,0.2-0.1
		s-0.6,0.3-0.2,0.1s-0.3,0.1-0.3,0.1c0.1,0,0.1,0,0.2,0c0.3,0-0.7,0.1-0.2,0s-0.6,0-0.1,0c0.3,0-0.5-0.1-0.2,0s0.4,0.2-0.1-0.1
		c1.1,0.5,2.5,0.4,3.5-0.4c0.4-0.3,0.7-0.7,0.8-1.2c0-0.5-0.2-0.9-0.6-1.1L274.5,257.2z"></path><path class="st0" d="M297.5,271.7c0,0,2.6-6.4-3.8-11.7s-14-4.5-14.6,0.8s11.1,9,11.1,9"></path><path class="st1" d="M299.8,271.9c0.9-2.5,0.9-5.2-0.1-7.7c-1.8-5-7-8.6-12.1-9.6c-4.3-0.8-9.8,0.7-10.9,5.5c-0.8,3.7,2,6.5,5,8.3
		c2.3,1.4,4.7,2.5,7.3,3.3c1.3,0.4,2.6-0.1,3.3-1.2c0.5-0.8,0.3-1.8-0.5-2.4c-0.1-0.1-0.3-0.2-0.5-0.2c-0.5-0.2-1-0.4-1.5-0.5
		s-1-0.4-1.5-0.6l-0.8-0.3l-0.1-0.1l-0.6-0.3c-1.3-0.6-2.5-1.4-3.6-2.3c0,0-0.5-0.4-0.1-0.1c-0.1-0.1-0.2-0.2-0.4-0.4
		c-0.2-0.2-0.4-0.4-0.6-0.6c-0.1-0.1-0.6-0.9-0.4-0.5c-0.1-0.3-0.2-0.5-0.3-0.8c-0.1-0.1-0.1-0.5,0-0.1c0-0.1,0-0.3,0-0.4
		c0-0.2,0-0.5,0.1-0.7l0.1-0.4c0.2-0.5-0.2,0.3,0.1-0.2c0.1-0.2,0.2-0.3,0.3-0.5c-0.3,0.5,0.2-0.1,0.2-0.2c0.4-0.4-0.3,0.2,0,0
		l0.4-0.2c-0.5,0.3-0.1,0,0.1,0c0.2-0.1,0.4-0.1,0.6-0.2c-0.6,0.2,0,0,0.2,0l0.4-0.1c0.1,0,0.8,0,0.3,0c0.3,0,0.6,0,0.9,0
		c4,0.6,7.5,3,9.4,6.6c0.7,1.4,1,3.1,0.8,4.7c0,0.1,0,0.3,0,0.4c0.1-0.6,0,0,0,0.1s-0.1,0.4-0.2,0.6c0,0.2-0.1,0.4-0.2,0.6
		c-0.5,1.2,0.7,2.1,1.8,2.2C298.2,273.8,299.4,273,299.8,271.9L299.8,271.9z"></path><path class="st0" d="M300.2,275.2c0,0,0.5-5.5-7.3-9.2s-12.2-1.2-11.3,4.7s10.6,5.8,10.6,5.8"></path><path class="st1" d="M302.3,276.5c0-2.2-0.8-4.3-2.1-6c-3.3-4.2-8.1-7-13.4-7.8c-1.7-0.4-3.5-0.1-5,0.7c-1.3,0.8-2.1,2.3-2.3,3.8
		c-0.5,4.4,2.5,7.7,6.3,9.5c2.5,1.1,5.1,1.6,7.8,1.6c1.1,0,0.7-1.2,0.2-1.8c-0.7-1-1.7-1.6-2.9-1.8c-0.5,0-1,0-1.5-0.1l-0.6-0.1
		l-0.4-0.1c-0.6-0.1-1.3-0.2-1.9-0.4c-0.1,0-0.9-0.3-0.5-0.1c-0.3-0.1-0.5-0.2-0.8-0.3c-0.1,0-0.6-0.3-0.1,0
		c-0.1-0.1-0.3-0.2-0.5-0.3c-0.4-0.2,0,0,0.1,0.1c-0.1-0.1-0.7-0.6-0.2-0.1L284,273c0.3,0.3,0.1,0.1,0.1,0.1l-0.1-0.1
		c0.1,0.2,0.1,0.2,0,0s-0.2-0.3-0.2-0.5c0,0.1,0.1,0.2,0-0.1c-0.1-0.2-0.1-0.4-0.1-0.5c-0.1-0.4-0.1-0.7-0.1-1.1
		c0-2.7,1.5-4.6,4.2-4.6c1.8,0.1,3.6,0.5,5.2,1.3c0.8,0.4,1.6,0.8,2.4,1.3c-0.3-0.2,1,0.8,0.5,0.4l0.3,0.3c0.1,0.1,0.6,0.7,0.3,0.3
		c0.2,0.3,0.5,0.6,0.7,0.9c-0.2-0.4,0,0.1,0.1,0.1s0.1,0.3,0.2,0.4s0.1,0.3,0.2,0.4c-0.1-0.4,0,0.1,0.1,0.2c0.1,0.3,0.2,0.5,0.2,0.8
		s0.1,0.4,0.1,0.6c0.1,0.5,0-0.1,0,0.2s0,0.3,0,0.4c-0.1,1,1.2,2,1.9,2.5C300.4,276.7,302.1,277.5,302.3,276.5L302.3,276.5z"></path><path class="st3" d="M197.9,209.6c0,0.2,0,0.4,0,0.5V210c-0.3,0.8-0.3,1.7-0.2,2.5c0.1,0.3,0.3,0.6,0.5,0.8
		c0.3,0.3,0.7,0.4,1.1,0.4c0.6-0.1,1.1-0.2,1.7-0.4c0.8-0.3,1.6-0.7,2.4-1.3c0.4-0.3,0.8-0.7,0.9-1.2c0.2-0.6,0-1.3-0.5-1.7
		c-0.6-0.6-1.5-0.8-2.3-0.5c-1.2,0.3-2.3,0.7-3.3,1.4c-0.6,0.3-1.1,0.8-1.4,1.3c-0.4,0.5-0.6,1.2-0.5,1.9c0.1,0.7,0.7,1.3,1.4,1.4
		c0.5,0,0.9,0,1.4-0.1c1-0.3,2-0.6,2.9-1.1c1-0.5,1.9-1.3,2.6-2.2c0.4-0.6,0.5-1.4,0.3-2.1c-0.2-0.7-0.7-1.2-1.3-1.4
		c-0.4-0.1-0.8-0.1-1.2-0.1c-0.9,0.1-1.9,0.4-2.7,0.9c-1.3,0.5-2.4,1.4-3.2,2.6c-0.3,0.7-0.5,1.4-0.5,2.1c0,0.7,0.3,1.4,0.8,1.9
		c0.9,0.5,1.9,0.5,2.9,0.1c1-0.3,2-0.8,2.9-1.3c0.6-0.3,1.1-0.8,1.5-1.3c0.4-0.6,0.7-1.4,0.6-2.2c0.1-0.7-0.1-1.4-0.6-1.9
		c-0.6-0.4-1.3-0.2-1.9,0c-0.6,0.2-1.2,0.4-1.8,0.8c-0.5,0.2-0.9,0.5-1.3,0.9c-0.1,0.1-0.4,0.4,0,0.5c0.4,0,0.8,0,1.2-0.2
		c-0.8,0.1-1,0.2-0.7,0.2h-0.3c0.1,0,0.2,0,0.3,0.1l-0.1-0.1c0.7,0.5,0.7,1.6,0.6,2.4v-0.2c-0.1,0.6-0.3,1.1-0.6,1.6l0.2-0.2
		c-0.1,0.1-0.5,0.4,0,0.1c-0.2,0.2,0.4-0.3,0.2-0.1l0.4-0.2c0.2-0.1,0.5-0.2,0.7-0.3c0,0,1-0.3,0.6-0.2c0.4-0.1,0.5-0.1,0.3-0.1
		c-0.1,0,0,0,0.2,0c-0.1,0-0.3,0-0.4,0h0.3c-0.3,0-0.6-0.1-0.8-0.2l0.1,0.1c-0.7-0.6-1-1.6-0.8-2.5v0.2c0.1-0.7,0.3-1.3,0.7-1.8
		l-0.2,0.2c0.1-0.1,0.2-0.2,0.3-0.3s-0.3,0.2-0.1,0.1c-0.4,0.3-0.8,0.5-1.2,0.7l-0.5,0.2l-0.4,0.1l-0.4,0.1h0.1c0,0-0.4,0.1-0.2,0
		l0,0c0.4,0,0.7,0.1,1,0.3l-0.1-0.1c0.6,0.5,0.9,1.2,0.8,2v-0.2c-0.1,0.5-0.3,1.1-0.6,1.5l0.2-0.2c-0.1,0.1-0.2,0.2-0.3,0.3
		c-0.2,0.2,0.3-0.3,0.1-0.1s0.4-0.3,0.2-0.1l0.4-0.2l0.5-0.2c0.3-0.1,0.6-0.3,0.9-0.4l0.3-0.1c-0.1,0-0.3,0,0.2,0l0,0
		c-0.3,0-0.5-0.1-0.8-0.2l0.1,0.1c-0.5-0.4-0.8-1-0.7-1.7v0.2c0.1-0.4,0.2-0.8,0.5-1.1l-0.2,0.2c0.1-0.1,0.1-0.1,0.2-0.2
		s-0.3,0.2-0.2,0.1s0.3-0.2-0.2,0.2c-0.7,0.5-1.4,0.8-2.2,1c-0.1,0-0.4,0-0.2,0h-0.1c0.3,0,0.6,0.1,0.8,0.3l-0.1-0.1
		c0.6,0.4,0.9,1,0.8,1.7v-0.2c0,0.2-0.1,0.4-0.3,0.6l0.2-0.2l-0.1,0.1c-0.6,0.6,0.1,0.2,2.1-1.2l1.1-0.3c-0.2,0.1,0.4,0,0.2,0h0.3
		c-0.2,0-0.4-0.1-0.5-0.2l0.1,0.1c-0.5-0.4-0.8-1.1-0.7-1.8v0.2c0.2-0.7,0.3-1.4,0.3-2.1c0-0.2-0.8,0-0.8,0
		c-1.2,0.3-2.2,0.8-3.2,1.5C198.2,209.2,197.9,209.4,197.9,209.6L197.9,209.6z"></path></g></svg>